<svg width="47" height="47" viewBox="0 0 47 47" fill="none" xmlns="http://www.w3.org/2000/svg">
<g clip-path="url(#clip0)">
<path d="M40.2521 6.73567C36.4189 2.90242 31.3563 0.544734 25.9558 0.0777923C20.5553 -0.389149 15.1631 1.06459 10.729 4.18303C6.29493 7.30147 3.10318 11.8846 1.71576 17.1254C0.328347 22.3662 0.83424 27.9285 3.14443 32.8329L0.0119325 45.0512C-0.046136 45.282 -0.0508354 45.5231 -0.00183336 45.756C0.0471686 45.9889 0.148594 46.2076 0.294744 46.3954C0.440894 46.5833 0.627928 46.7353 0.841632 46.8401C1.05534 46.9448 1.29011 46.9995 1.52809 46.9999C1.65932 47.0022 1.79017 46.9853 1.91652 46.9498L14.1333 43.8169C19.0367 46.1238 24.5965 46.6271 29.8344 45.2382C35.0722 43.8492 39.6524 40.6571 42.7689 36.2235C45.8854 31.79 47.3385 26.3991 46.8724 20.9996C46.4063 15.6001 44.0509 10.5381 40.2207 6.70434L40.2521 6.73567ZM38.0405 37.0873C35.0849 40.0497 31.2692 42.0028 27.138 42.6677C23.0068 43.3327 18.7712 42.6757 15.0355 40.7905C14.6983 40.6207 14.3111 40.5784 13.9453 40.6714L3.72711 43.2655L6.32083 33.0459C6.41396 32.6821 6.37161 32.2968 6.20175 31.9619C4.55554 28.6883 3.84532 25.0236 4.14942 21.372C4.45351 17.7203 5.76016 14.2236 7.92516 11.2675C10.0902 8.31138 13.0294 6.01073 16.4188 4.61929C19.8082 3.22784 23.516 2.79965 27.1332 3.38196C30.7505 3.96427 34.1366 5.53445 36.9182 7.91932C39.6998 10.3042 41.7689 13.4111 42.897 16.8973C44.0252 20.3836 44.1687 24.1137 43.3118 27.6764C42.4548 31.239 40.6307 34.4957 38.0405 37.0873Z" fill="#0078D4"/>
<path d="M28.8816 16.6358C28.116 16.6155 27.3736 16.8996 26.817 17.4257C26.2604 17.9519 25.9349 18.6772 25.912 19.4429C25.8959 20.1151 26.1395 20.7678 26.5923 21.2649C27.045 21.7621 27.6721 22.0655 28.3428 22.1121C27.9302 22.7089 27.3772 23.1952 26.7327 23.5282C26.4735 23.6783 26.2767 23.9163 26.1778 24.1991C26.079 24.4818 26.0847 24.7907 26.1939 25.0696L26.4132 25.6398C26.505 25.8741 26.6653 26.0754 26.8732 26.2173C27.081 26.3592 27.3268 26.4353 27.5784 26.4355C27.7305 26.4365 27.8814 26.4088 28.0233 26.3541C29.2494 25.9325 30.3191 25.1495 31.0918 24.1083C31.8645 23.0671 32.3039 21.8164 32.3524 20.5206C32.3524 18.29 30.8613 16.6358 28.8816 16.6358Z" fill="#0078D4"/>
<path d="M36.08 16.6358C35.315 16.6156 34.5733 16.8998 34.0177 17.4261C33.4621 17.9525 33.138 18.6778 33.1167 19.4429C33.1005 20.1141 33.3432 20.7659 33.7947 21.2629C34.2461 21.7599 34.8716 22.064 35.5412 22.1121C35.1286 22.7089 34.5757 23.1952 33.9311 23.5282C33.6719 23.6783 33.4751 23.9163 33.3763 24.1991C33.2774 24.4818 33.2831 24.7907 33.3923 25.0696L33.6116 25.6398C33.732 25.9483 33.9695 26.1966 34.2724 26.3304C34.5753 26.4643 34.9189 26.4728 35.228 26.3541C36.4526 25.9302 37.5209 25.1467 38.2933 24.106C39.0656 23.0652 39.506 21.8157 39.5571 20.5206C39.5571 18.29 38.0598 16.6358 36.08 16.6358Z" fill="#0078D4"/>
<path d="M12.2731 16.9992C12.6844 16.4012 13.2376 15.9146 13.8832 15.5831C14.1424 15.433 14.3393 15.195 14.4381 14.9122C14.5369 14.6295 14.5312 14.3206 14.422 14.0417L14.1964 13.4715C14.076 13.1645 13.8394 12.9174 13.538 12.7837C13.2366 12.65 12.8947 12.6404 12.5864 12.7572C11.3613 13.1803 10.2925 13.9637 9.52002 15.0045C8.74756 16.0454 8.30739 17.2954 8.25723 18.5907C8.25723 20.8025 9.7546 22.4755 11.7343 22.4755C12.4993 22.4957 13.2411 22.2115 13.7967 21.6852C14.3523 21.1588 14.6764 20.4335 14.6977 19.6684C14.7139 18.9972 14.4711 18.3454 14.0196 17.8484C13.5682 17.3514 12.9428 17.0473 12.2731 16.9992Z" fill="#0078D4"/>
<path d="M19.4717 16.9991C19.8844 16.4024 20.4372 15.9161 21.0818 15.5831C21.341 15.4329 21.5379 15.1949 21.6367 14.9122C21.7356 14.6294 21.7298 14.3206 21.6206 14.0417L21.4013 13.4715C21.2822 13.1618 21.0451 12.9121 20.7421 12.777C20.4391 12.6419 20.0949 12.6326 19.785 12.7509C18.5598 13.1759 17.4913 13.9606 16.719 15.0024C15.9467 16.0442 15.5065 17.2947 15.4558 18.5907C15.4558 20.8025 16.9532 22.4755 18.9329 22.4755C19.6979 22.4957 20.4397 22.2114 20.9953 21.6851C21.5509 21.1588 21.875 20.4335 21.8963 19.6684C21.9125 18.9971 21.6697 18.3454 21.2182 17.8484C20.7668 17.3514 20.1414 17.0473 19.4717 16.9991Z" fill="#0078D4"/>
</g>
<defs>
<clipPath id="clip0">
<rect width="47" height="47" fill="white"/>
</clipPath>
</defs>
</svg>
