<svg width="74" height="25" viewBox="0 0 74 25" fill="none" xmlns="http://www.w3.org/2000/svg">
<path d="M36.2648 17.8181C35.4653 18.1556 34.6294 18.3267 33.7617 18.3267C32.4079 18.3267 31.3039 17.869 30.4499 16.9442C29.5958 16.0195 29.1688 14.8128 29.1642 13.3239C29.1642 11.6918 29.623 10.3787 30.5453 9.39385C31.4675 8.40902 32.6441 7.91429 34.0706 7.90967C34.8293 7.90967 35.5561 8.02988 36.2512 8.27956V9.01472C35.5561 8.69569 34.8247 8.53848 34.057 8.53848C32.8167 8.53848 31.8037 8.96848 31.0314 9.82848C30.2545 10.6838 29.8684 11.8259 29.8684 13.25C29.8684 14.6232 30.2409 15.7051 30.9859 16.4958C31.731 17.2864 32.6714 17.684 33.8116 17.684C34.7202 17.684 35.5379 17.5037 36.2603 17.1384L36.2648 17.8181Z" fill="#F33DF3"/>
<path d="M40.208 18.3222C39.1767 18.3222 38.3635 17.98 37.7593 17.2911C37.1597 16.6022 36.8553 15.7052 36.8553 14.6001C36.8553 13.4072 37.1687 12.4733 37.7957 11.7982C38.4226 11.1232 39.2494 10.7856 40.2761 10.7856C41.2846 10.7856 42.0796 11.1185 42.6657 11.789C43.2517 12.4594 43.5425 13.3841 43.547 14.5678C43.547 15.6867 43.2517 16.5929 42.6566 17.2865C42.0569 17.9708 41.2438 18.3175 40.208 18.3222ZM40.2489 11.3682C39.4175 11.3682 38.7542 11.6549 38.259 12.2282C37.7639 12.8015 37.5186 13.5922 37.5186 14.6094C37.5186 15.5526 37.7639 16.3063 38.2454 16.875C38.727 17.4437 39.3902 17.7303 40.2261 17.7303C41.0757 17.7303 41.7344 17.4483 42.1932 16.8842C42.6521 16.3201 42.8837 15.5434 42.8792 14.5447C42.8792 13.5182 42.6475 12.7322 42.1887 12.1866C41.7344 11.641 41.0848 11.3682 40.2489 11.3682Z" fill="#F33DF3"/>
<path d="M49.5395 18.1328L49.5349 13.9484C49.5349 12.2192 48.9216 11.3592 47.695 11.3592C47.0136 11.3592 46.4548 11.6135 46.0187 12.1221C45.5826 12.6307 45.3645 13.2595 45.3645 14.0085L45.3691 18.1374H44.7331L44.724 10.9477H45.36V12.2515H45.3872C45.9006 11.2621 46.7047 10.7673 47.7995 10.7673C48.5627 10.7673 49.1488 11.0263 49.5531 11.5395C49.9574 12.0573 50.1619 12.7925 50.1619 13.7542L50.1664 18.1282L49.5395 18.1328Z" fill="#F33DF3"/>
<path d="M54.4273 18.0309C54.0956 18.1881 53.7867 18.2714 53.496 18.2714C52.4511 18.2714 51.9287 17.6379 51.9287 16.3618L51.9241 11.5301H50.6566V10.9383H51.9241V9.07034C52.0241 9.03335 52.1331 8.99636 52.2421 8.95937C52.3512 8.927 52.4602 8.89002 52.5601 8.85303L52.5647 10.9383H54.4273V11.5301H52.5647L52.5692 16.2786C52.5692 16.7733 52.6464 17.134 52.8009 17.3559C52.9554 17.5778 53.2143 17.6888 53.5823 17.6888C53.8458 17.6888 54.1274 17.6009 54.4318 17.4299L54.4273 18.0309Z" fill="#F33DF3"/>
<path d="M57.8801 18.2987C56.8488 18.2987 56.0357 17.9566 55.4314 17.2677C54.8318 16.5787 54.5274 15.6818 54.5274 14.5767C54.5274 13.3838 54.8409 12.4498 55.4678 11.7748C56.0947 11.0997 56.9215 10.7622 57.9482 10.7622C58.9568 10.7622 59.7518 11.0951 60.3378 11.7655C60.9238 12.436 61.2146 13.3607 61.2191 14.5443C61.2191 15.6633 60.9239 16.5695 60.3287 17.263C59.7291 17.952 58.9159 18.2987 57.8801 18.2987ZM57.921 11.3494C57.0896 11.3494 56.4263 11.6361 55.9312 12.2094C55.436 12.7827 55.1907 13.5734 55.1907 14.5906C55.1907 15.5338 55.436 16.2874 55.9175 16.8562C56.3991 17.4249 57.0624 17.7115 57.8983 17.7115C58.7478 17.7115 59.4065 17.4295 59.8653 16.8654C60.3242 16.3013 60.5559 15.5245 60.5513 14.5258C60.5513 13.4994 60.3196 12.7134 59.8608 12.1678C59.4065 11.6222 58.7569 11.3494 57.921 11.3494Z" fill="#F33DF3"/>
<path d="M61.9506 17.8042V17.0228C62.1914 17.2309 62.4821 17.3973 62.8183 17.5222C63.159 17.6424 63.4543 17.7025 63.6997 17.7025C64.8081 17.7025 65.3624 17.2401 65.3624 16.3154C65.3624 15.9964 65.2397 15.7236 64.9944 15.5016C64.7491 15.2751 64.3538 15.0439 63.8087 14.8081C63.1318 14.5075 62.6548 14.1978 62.3822 13.8787C62.1096 13.5597 61.9688 13.1667 61.9688 12.709C61.9688 12.1218 62.1869 11.6501 62.6275 11.2895C63.0682 10.9289 63.6088 10.7485 64.2539 10.7485C64.8627 10.7485 65.3805 10.8734 65.8121 11.1277V11.8582C65.2851 11.5114 64.7445 11.3404 64.1812 11.3404C63.7178 11.3404 63.3408 11.4652 63.0591 11.7103C62.7729 11.9553 62.6321 12.2743 62.6321 12.6673C62.6321 13.0095 62.7229 13.2869 62.9001 13.4996C63.0818 13.7123 63.4771 13.9573 64.0858 14.2301C64.8218 14.5677 65.3306 14.8774 65.6032 15.1641C65.8803 15.4508 66.0166 15.8345 66.0166 16.3108C66.0166 16.8841 65.8076 17.3557 65.3851 17.7256C64.9626 18.1001 64.3856 18.2851 63.6451 18.2851C62.9773 18.2943 62.4095 18.1325 61.9506 17.8042Z" fill="#F33DF3"/>
<path d="M70.0643 18.2851C69.0331 18.2851 68.2199 17.9429 67.6157 17.254C67.016 16.5651 66.7116 15.6681 66.7116 14.563C66.7116 13.3701 67.0251 12.4362 67.652 11.7611C68.2789 11.0861 69.1058 10.7485 70.1325 10.7485C71.141 10.7485 71.936 11.0814 72.522 11.7519C73.1081 12.4223 73.3988 13.347 73.4034 14.5307C73.4034 15.6496 73.1081 16.5558 72.513 17.2494C71.9133 17.9383 71.1001 18.2851 70.0643 18.2851ZM70.1052 11.3357C69.2738 11.3357 68.6106 11.6224 68.1154 12.1957C67.6202 12.7691 67.3749 13.5597 67.3749 14.5769C67.3749 15.5201 67.6202 16.2738 68.1018 16.8425C68.5833 17.4112 69.2466 17.6979 70.0825 17.6979C70.932 17.6979 71.5907 17.4158 72.0496 16.8517C72.5084 16.2876 72.7401 15.5109 72.7356 14.5122C72.7356 13.4857 72.5039 12.6997 72.045 12.1541C71.5907 11.6085 70.9411 11.3311 70.1052 11.3357Z" fill="#F33DF3"/>
<path d="M24.4894 12.4777C24.4894 12.6396 24.4894 12.8014 24.4894 12.9632C24.4849 13.0048 24.4804 13.0418 24.4758 13.0834C24.444 13.4765 24.4258 13.8741 24.385 14.2671C24.3214 14.8682 24.2032 15.46 24.0351 16.0426C23.2447 18.826 21.6955 21.0638 19.3786 22.7468C17.3661 24.2079 15.1128 24.9384 12.646 24.9893C12.1599 24.9985 11.6784 24.9708 11.1968 24.9199C10.7244 24.8691 10.261 24.7951 9.79761 24.6841C7.71241 24.194 5.8816 23.2138 4.30975 21.7389C3.03319 20.5414 2.05646 19.1265 1.37956 17.499C0.820782 16.1582 0.511863 14.7572 0.443719 13.3008C0.416461 12.6719 0.425547 12.0477 0.493691 11.4236C0.552749 10.8641 0.648151 10.3093 0.784439 9.75905C1.26599 7.81712 2.17003 6.10638 3.4784 4.61295C4.40515 3.55413 5.47728 2.68951 6.69479 2.00984C8.37113 1.07587 10.1701 0.576514 12.0782 0.50716C12.9822 0.474795 13.8817 0.548773 14.7721 0.724471C15.7307 0.918663 16.6529 1.22382 17.5342 1.64457C19.2287 2.45371 20.6643 3.60499 21.8364 5.08918C22.7495 6.24509 23.4355 7.53046 23.8898 8.94067C24.0942 9.57873 24.2532 10.2307 24.3486 10.9011C24.3986 11.2525 24.4258 11.6085 24.4576 11.9599C24.4758 12.131 24.4804 12.3067 24.4894 12.4777ZM12.4643 7.07734C9.39329 7.08197 6.89922 9.62959 6.89922 12.7598C6.89468 15.8807 9.43417 18.4006 12.487 18.396C15.5399 18.3867 18.0112 15.8576 18.0158 12.7552C18.0158 9.68507 15.5671 7.08659 12.4643 7.07734ZM12.0645 2.67102C12.0645 2.66177 12.06 2.65253 12.06 2.64328C11.7556 2.6664 11.4467 2.67564 11.1423 2.71263C10.5381 2.78199 9.94753 2.9207 9.37057 3.11489C7.93501 3.60037 6.66299 4.36789 5.5636 5.42208C4.6959 6.25434 4.00538 7.21605 3.51928 8.32572C3.10133 9.27819 2.86964 10.2769 2.81513 11.3218C2.77878 12.0662 2.82421 12.806 2.98776 13.5319C3.28305 14.8266 3.86454 15.9732 4.74587 16.958C5.5 17.7995 6.3995 18.4191 7.458 18.8029C7.54432 18.8352 7.63063 18.8584 7.71695 18.8861C7.71241 18.863 7.69878 18.8491 7.68515 18.8399C7.18543 18.4006 6.73568 17.9151 6.34044 17.3742C5.37734 16.0611 4.8867 14.5861 4.84582 12.9494C4.82765 12.2281 4.90033 11.5114 5.03208 10.804C5.21379 9.85615 5.48637 8.94067 5.8816 8.06218C6.46764 6.74906 7.29446 5.6209 8.38022 4.69617C9.30697 3.90553 10.3473 3.32295 11.4694 2.88833C11.6693 2.81435 11.8692 2.745 12.0645 2.67102ZM21.7819 16.0657C21.8182 15.9732 21.8545 15.89 21.8863 15.8021C22.2043 14.9699 22.3633 14.1006 22.4088 13.2083C22.4406 12.5332 22.3951 11.8674 22.2816 11.2016C22.1453 10.3971 21.9091 9.62496 21.5638 8.88981C21.0686 7.82637 20.3963 6.90164 19.4968 6.15724C18.252 5.13079 16.821 4.55746 15.231 4.38639C14.7539 4.33553 14.2815 4.34015 13.8045 4.39564C13.3093 4.45574 12.8277 4.57133 12.3644 4.76553C12.219 4.82563 12.0736 4.89961 11.9328 4.96897C11.9328 4.97359 11.9373 4.98284 11.9373 4.98746C11.9691 4.98746 12.0055 4.98746 12.0373 4.98746C12.6324 4.97821 13.2275 5.02445 13.8136 5.13542C14.7767 5.31111 15.6852 5.65326 16.5348 6.14337C17.7977 6.87853 18.8653 7.84949 19.7739 9.00077C21.1095 10.7023 21.741 12.6627 21.7955 14.8219C21.8046 15.2381 21.7864 15.6449 21.7819 16.0657ZM6.23595 20.5691C6.25867 20.5968 6.26775 20.6061 6.28138 20.6153C6.50853 20.8003 6.73113 20.9991 6.97191 21.1702C8.34841 22.155 9.88847 22.6544 11.5603 22.7515C12.1463 22.7884 12.7369 22.7561 13.3184 22.6636C13.8999 22.5758 14.4677 22.4324 15.0129 22.2059C17.0118 21.3782 18.4246 19.9403 19.2696 17.9244C19.6194 17.0921 19.7739 16.2136 19.7285 15.3028C19.7285 15.2658 19.7194 15.2242 19.7148 15.1872C19.6966 15.2057 19.6876 15.2196 19.6785 15.2381C19.5876 15.4507 19.4968 15.6634 19.3968 15.8715C18.7971 17.1337 17.9658 18.2111 16.8937 19.0942C16.0805 19.7646 15.181 20.2824 14.2224 20.6986C13.173 21.1609 12.0782 21.4383 10.9333 21.4985C10.261 21.5354 9.58863 21.4938 8.92537 21.3782C8.14853 21.2442 7.39894 21.0268 6.66753 20.7309C6.5267 20.6939 6.39041 20.6338 6.23595 20.5691Z" fill="#F33DF3"/>
</svg>
