<svg width="152" height="50" viewBox="0 0 152 50" fill="none" xmlns="http://www.w3.org/2000/svg">
<path d="M74.4588 35.3559C72.7974 36.045 71.0606 36.3943 69.2577 36.3943C66.4448 36.3943 64.151 35.4598 62.3764 33.5719C60.6018 31.684 59.7145 29.2204 59.7051 26.1809C59.7051 22.8488 60.6584 20.168 62.5746 18.1575C64.4908 16.1469 66.9356 15.1369 69.8996 15.1274C71.4759 15.1274 72.9862 15.3729 74.4304 15.8826V17.3834C72.9862 16.7321 71.4665 16.4112 69.8712 16.4112C67.2943 16.4112 65.1893 17.289 63.5846 19.0448C61.9705 20.791 61.1682 23.1226 61.1682 26.0299C61.1682 28.8334 61.9422 31.0422 63.4902 32.6563C65.0383 34.2704 66.9922 35.0822 69.3615 35.0822C71.2494 35.0822 72.9485 34.7141 74.4493 33.9684L74.4588 35.3559Z" fill="white"/>
<path d="M82.6518 36.3847C80.509 36.3847 78.8194 35.6861 77.564 34.2797C76.318 32.8732 75.6855 31.042 75.6855 28.786C75.6855 26.3506 76.3369 24.4439 77.6395 23.0658C78.9421 21.6876 80.6601 20.9985 82.7934 20.9985C84.8889 20.9985 86.5408 21.6782 87.7585 23.0469C88.9761 24.4156 89.5802 26.3034 89.5897 28.7199C89.5897 31.0042 88.9761 32.8543 87.7396 34.2702C86.4936 35.6673 84.8039 36.3752 82.6518 36.3847ZM82.7367 22.1879C81.0093 22.1879 79.6312 22.7731 78.6023 23.9436C77.5734 25.1141 77.0637 26.7282 77.0637 28.8049C77.0637 30.7305 77.5734 32.2691 78.574 33.4301C79.5746 34.5912 80.9527 35.1764 82.6895 35.1764C84.4547 35.1764 85.8234 34.6006 86.7768 33.449C87.7301 32.2974 88.2115 30.7116 88.2021 28.6727C88.2021 26.5772 87.7207 24.9725 86.7673 23.8587C85.8234 22.7448 84.4736 22.1879 82.7367 22.1879Z" fill="white"/>
<path d="M102.041 35.9978L102.031 27.4552C102.031 23.9249 100.757 22.1692 98.2085 22.1692C96.7926 22.1692 95.6315 22.6883 94.7254 23.7267C93.8192 24.765 93.3661 26.0487 93.3661 27.5779L93.3755 36.0072H92.054L92.0352 21.3291H93.3567V23.991H93.4133C94.4799 21.9709 96.1507 20.9609 98.4256 20.9609C100.011 20.9609 101.229 21.4895 102.069 22.5373C102.909 23.5945 103.334 25.0954 103.334 27.0587L103.343 35.9884L102.041 35.9978Z" fill="white"/>
<path d="M112.197 35.7903C111.508 36.1112 110.866 36.2811 110.262 36.2811C108.091 36.2811 107.005 34.988 107.005 32.3827L106.996 22.5186H104.362V21.3104H106.996V17.4969C107.204 17.4214 107.43 17.3458 107.657 17.2703C107.883 17.2043 108.11 17.1287 108.317 17.0532L108.327 21.3104H112.197V22.5186H108.327L108.336 32.2128C108.336 33.2228 108.497 33.9591 108.818 34.4122C109.139 34.8652 109.677 35.0918 110.441 35.0918C110.989 35.0918 111.574 34.9124 112.206 34.5632L112.197 35.7903Z" fill="white"/>
<path d="M119.372 36.3378C117.229 36.3378 115.539 35.6393 114.284 34.2328C113.038 32.8263 112.405 30.9951 112.405 28.7391C112.405 26.3038 113.057 24.397 114.359 23.0189C115.662 21.6407 117.38 20.9517 119.513 20.9517C121.609 20.9517 123.261 21.6313 124.478 23C125.696 24.3687 126.3 26.2566 126.309 28.673C126.309 30.9574 125.696 32.8075 124.459 34.2234C123.213 35.6298 121.524 36.3378 119.372 36.3378ZM119.456 22.1505C117.729 22.1505 116.351 22.7357 115.322 23.9062C114.293 25.0767 113.783 26.6908 113.783 28.7674C113.783 30.6931 114.293 32.2317 115.294 33.3927C116.294 34.5537 117.672 35.139 119.409 35.139C121.174 35.139 122.543 34.5632 123.496 33.4116C124.45 32.26 124.931 30.6742 124.922 28.6353C124.922 26.5397 124.44 24.9351 123.487 23.8212C122.543 22.7074 121.193 22.1505 119.456 22.1505Z" fill="white"/>
<path d="M127.829 35.3278V33.7325C128.329 34.1573 128.934 34.4971 129.632 34.752C130.34 34.9974 130.954 35.1201 131.463 35.1201C133.766 35.1201 134.918 34.1762 134.918 32.2883C134.918 31.637 134.663 31.0801 134.153 30.627C133.644 30.1644 132.823 29.6925 131.69 29.2111C130.283 28.5975 129.292 27.9651 128.726 27.3138C128.159 26.6625 127.867 25.8601 127.867 24.9256C127.867 23.7268 128.32 22.764 129.236 22.0277C130.151 21.2915 131.274 20.9233 132.615 20.9233C133.88 20.9233 134.956 21.1782 135.853 21.6974V23.1888C134.758 22.4808 133.634 22.1316 132.464 22.1316C131.501 22.1316 130.718 22.3864 130.132 22.8867C129.538 23.387 129.245 24.0383 129.245 24.8407C129.245 25.5392 129.434 26.1055 129.802 26.5397C130.179 26.974 131.001 27.4742 132.266 28.0312C133.795 28.7202 134.852 29.3527 135.418 29.9379C135.994 30.5231 136.277 31.3066 136.277 32.2789C136.277 33.4493 135.843 34.4122 134.965 35.1673C134.087 35.9319 132.889 36.3095 131.35 36.3095C129.962 36.3283 128.782 35.998 127.829 35.3278Z" fill="white"/>
<path d="M144.687 36.3095C142.544 36.3095 140.855 35.6109 139.599 34.2045C138.353 32.798 137.721 30.9668 137.721 28.7108C137.721 26.2754 138.372 24.3687 139.675 22.9906C140.977 21.6124 142.695 20.9233 144.829 20.9233C146.924 20.9233 148.576 21.603 149.794 22.9717C151.011 24.3404 151.615 26.2282 151.625 28.6447C151.625 30.929 151.011 32.7791 149.775 34.195C148.529 35.6015 146.839 36.3095 144.687 36.3095ZM144.772 22.1221C143.044 22.1221 141.666 22.7074 140.637 23.8779C139.609 25.0483 139.099 26.6625 139.099 28.7391C139.099 30.6647 139.609 32.2033 140.609 33.3644C141.61 34.5254 142.988 35.1107 144.725 35.1107C146.49 35.1107 147.859 34.5349 148.812 33.3833C149.765 32.2317 150.247 30.6459 150.237 28.607C150.237 26.5114 149.756 24.9067 148.802 23.7929C147.859 22.6791 146.509 22.1127 144.772 22.1221Z" fill="white"/>
<path d="M49.9921 24.4536C49.9921 24.7839 49.9921 25.1143 49.9921 25.4447C49.9827 25.5296 49.9733 25.6052 49.9638 25.6901C49.8977 26.4925 49.86 27.3042 49.775 28.1066C49.6429 29.3337 49.3975 30.5419 49.0482 31.7313C47.4058 37.4138 44.1869 41.9824 39.3729 45.4183C35.1913 48.4012 30.5093 49.8926 25.3838 49.9964C24.3738 50.0153 23.3732 49.9586 22.3726 49.8548C21.3909 49.751 20.4281 49.5999 19.4653 49.3734C15.1327 48.3728 11.3286 46.3717 8.0626 43.3605C5.41015 40.9158 3.38069 38.0273 1.97423 34.7047C0.81319 31.9673 0.171316 29.1072 0.0297255 26.1338C-0.0269106 24.85 -0.00803189 23.5757 0.133558 22.3014C0.25627 21.1592 0.454496 20.0265 0.737676 18.9032C1.73825 14.9387 3.61667 11.4462 6.3352 8.39725C8.26083 6.23564 10.4885 4.47048 13.0183 3.0829C16.5014 1.17615 20.2393 0.156706 24.2039 0.0151158C26.0823 -0.0509595 27.9513 0.10007 29.8014 0.458765C31.7931 0.855217 33.7093 1.47821 35.5405 2.33719C39.0614 3.98908 42.0442 6.33947 44.4796 9.3695C46.3769 11.7293 47.8022 14.3535 48.7461 17.2325C49.1709 18.5351 49.5013 19.866 49.6995 21.2347C49.8034 21.9521 49.86 22.679 49.9261 23.3964C49.9638 23.7456 49.9733 24.1043 49.9921 24.4536ZM25.0062 13.4284C18.6252 13.4379 13.443 18.6389 13.443 25.0294C13.4336 31.4009 18.7102 36.5453 25.0534 36.5359C31.3966 36.517 36.5316 31.3537 36.5411 25.0199C36.5411 18.7522 31.4533 13.4473 25.0062 13.4284ZM24.1755 4.43273C24.1755 4.41385 24.1661 4.39497 24.1661 4.37609C23.5337 4.42329 22.8918 4.44216 22.2594 4.51768C21.0039 4.65927 19.7768 4.94245 18.578 5.3389C15.5952 6.33003 12.9522 7.89696 10.6679 10.0491C8.86494 11.7482 7.43017 13.7116 6.42016 15.977C5.55174 17.9215 5.07033 19.9604 4.95706 22.0937C4.88154 23.6135 4.97594 25.1238 5.31575 26.6057C5.92931 29.2487 7.13755 31.5897 8.96878 33.6003C10.5357 35.3182 12.4047 36.5831 14.6041 37.3666C14.7834 37.4326 14.9628 37.4798 15.1421 37.5365C15.1327 37.4893 15.1043 37.461 15.076 37.4421C14.0377 36.5453 13.1032 35.5542 12.282 34.4498C10.2808 31.769 9.2614 28.7579 9.17644 25.4164C9.13869 23.9438 9.28971 22.4807 9.56346 21.0365C9.94103 19.1015 10.5074 17.2325 11.3286 15.439C12.5463 12.7582 14.2642 10.455 16.5202 8.56715C18.4459 6.95303 20.6075 5.76367 22.939 4.87637C23.3543 4.72534 23.7697 4.58375 24.1755 4.43273ZM44.3663 31.7785C44.4418 31.5897 44.5173 31.4198 44.5834 31.2404C45.2441 29.5414 45.5745 27.7668 45.6689 25.945C45.735 24.5668 45.6406 23.2076 45.4046 21.8483C45.1214 20.2059 44.6306 18.6295 43.9132 17.1286C42.8843 14.9576 41.4873 13.0697 39.6183 11.55C37.0319 9.45445 34.0585 8.28397 30.7548 7.93472C29.7636 7.83089 28.7819 7.84033 27.7908 7.9536C26.7619 8.07631 25.7614 8.31229 24.7985 8.70874C24.4965 8.83146 24.1944 8.98248 23.9018 9.12407C23.9018 9.13351 23.9112 9.15239 23.9112 9.16183C23.9773 9.16183 24.0528 9.16183 24.1189 9.16183C25.3555 9.14295 26.592 9.23735 27.8097 9.46389C29.8108 9.82259 31.6987 10.5211 33.4639 11.5217C36.088 13.0225 38.3062 15.0048 40.1941 17.3552C42.9693 20.8289 44.2813 24.8311 44.3946 29.2393C44.4135 30.0888 44.3757 30.9195 44.3663 31.7785ZM12.0649 40.9724C12.1121 41.029 12.131 41.0479 12.1593 41.0668C12.6312 41.4444 13.0938 41.8503 13.5941 42.1995C16.4542 44.2101 19.6541 45.2295 23.1278 45.4278C24.3455 45.5033 25.5726 45.4372 26.7808 45.2484C27.989 45.0691 29.169 44.7765 30.3017 44.3139C34.455 42.6243 37.3906 39.6886 39.1463 35.5731C39.8732 33.874 40.1941 32.0805 40.0997 30.221C40.0997 30.1455 40.0808 30.0605 40.0714 29.985C40.0336 30.0228 40.0148 30.0511 39.9959 30.0888C39.8071 30.5231 39.6183 30.9573 39.4106 31.382C38.1646 33.959 36.4372 36.1583 34.2096 37.9613C32.5199 39.33 30.6509 40.3872 28.6592 41.2367C26.4787 42.1806 24.2039 42.747 21.8252 42.8697C20.4281 42.9452 19.0311 42.8603 17.653 42.6243C16.0388 42.3505 14.4813 41.9069 12.9616 41.3028C12.669 41.2273 12.3858 41.1045 12.0649 40.9724Z" fill="white"/>
</svg>
