<svg width="153" height="50" viewBox="0 0 153 50" fill="none" xmlns="http://www.w3.org/2000/svg">
<path d="M74.9588 35.3559C73.2974 36.045 71.5606 36.3943 69.7577 36.3943C66.9448 36.3943 64.651 35.4598 62.8764 33.5719C61.1018 31.684 60.2145 29.2204 60.2051 26.1809C60.2051 22.8488 61.1584 20.168 63.0746 18.1575C64.9908 16.1469 67.4356 15.1369 70.3996 15.1274C71.9759 15.1274 73.4862 15.3729 74.9304 15.8826V17.3834C73.4862 16.7321 71.9665 16.4112 70.3712 16.4112C67.7943 16.4112 65.6893 17.289 64.0846 19.0448C62.4705 20.791 61.6682 23.1226 61.6682 26.0299C61.6682 28.8334 62.4422 31.0422 63.9902 32.6563C65.5383 34.2704 67.4922 35.0822 69.8615 35.0822C71.7494 35.0822 73.4485 34.7141 74.9493 33.9684L74.9588 35.3559Z" fill="white"/>
<path d="M83.1518 36.3847C81.009 36.3847 79.3194 35.6861 78.064 34.2797C76.818 32.8732 76.1855 31.042 76.1855 28.786C76.1855 26.3506 76.8369 24.4439 78.1395 23.0658C79.4421 21.6876 81.1601 20.9985 83.2934 20.9985C85.3889 20.9985 87.0408 21.6782 88.2585 23.0469C89.4761 24.4156 90.0802 26.3034 90.0897 28.7199C90.0897 31.0042 89.4761 32.8543 88.2396 34.2702C86.9936 35.6673 85.3039 36.3752 83.1518 36.3847ZM83.2367 22.1879C81.5093 22.1879 80.1312 22.7731 79.1023 23.9436C78.0734 25.1141 77.5637 26.7282 77.5637 28.8049C77.5637 30.7305 78.0734 32.2691 79.074 33.4301C80.0746 34.5912 81.4527 35.1764 83.1895 35.1764C84.9547 35.1764 86.3234 34.6006 87.2768 33.449C88.2301 32.2974 88.7115 30.7116 88.7021 28.6727C88.7021 26.5772 88.2207 24.9725 87.2673 23.8587C86.3234 22.7448 84.9736 22.1879 83.2367 22.1879Z" fill="white"/>
<path d="M102.541 35.9978L102.531 27.4552C102.531 23.9249 101.257 22.1692 98.7085 22.1692C97.2926 22.1692 96.1315 22.6883 95.2254 23.7267C94.3192 24.765 93.8661 26.0487 93.8661 27.5779L93.8755 36.0072H92.554L92.5352 21.3291H93.8567V23.991H93.9133C94.9799 21.9709 96.6507 20.9609 98.9256 20.9609C100.511 20.9609 101.729 21.4895 102.569 22.5373C103.409 23.5945 103.834 25.0954 103.834 27.0587L103.843 35.9884L102.541 35.9978Z" fill="white"/>
<path d="M112.697 35.7903C112.008 36.1112 111.366 36.2811 110.762 36.2811C108.591 36.2811 107.505 34.988 107.505 32.3827L107.496 22.5186H104.862V21.3104H107.496V17.4969C107.704 17.4214 107.93 17.3458 108.157 17.2703C108.383 17.2043 108.61 17.1287 108.817 17.0532L108.827 21.3104H112.697V22.5186H108.827L108.836 32.2128C108.836 33.2228 108.997 33.9591 109.318 34.4122C109.639 34.8652 110.177 35.0918 110.941 35.0918C111.489 35.0918 112.074 34.9124 112.706 34.5632L112.697 35.7903Z" fill="white"/>
<path d="M119.872 36.3378C117.729 36.3378 116.039 35.6393 114.784 34.2328C113.538 32.8263 112.905 30.9951 112.905 28.7391C112.905 26.3038 113.557 24.397 114.859 23.0189C116.162 21.6407 117.88 20.9517 120.013 20.9517C122.109 20.9517 123.761 21.6313 124.978 23C126.196 24.3687 126.8 26.2566 126.809 28.673C126.809 30.9574 126.196 32.8075 124.959 34.2234C123.713 35.6298 122.024 36.3378 119.872 36.3378ZM119.956 22.1505C118.229 22.1505 116.851 22.7357 115.822 23.9062C114.793 25.0767 114.283 26.6908 114.283 28.7674C114.283 30.6931 114.793 32.2317 115.794 33.3927C116.794 34.5537 118.172 35.139 119.909 35.139C121.674 35.139 123.043 34.5632 123.996 33.4116C124.95 32.26 125.431 30.6742 125.422 28.6353C125.422 26.5397 124.94 24.9351 123.987 23.8212C123.043 22.7074 121.693 22.1505 119.956 22.1505Z" fill="white"/>
<path d="M128.329 35.3278V33.7325C128.829 34.1573 129.434 34.4971 130.132 34.752C130.84 34.9974 131.454 35.1201 131.963 35.1201C134.266 35.1201 135.418 34.1762 135.418 32.2883C135.418 31.637 135.163 31.0801 134.653 30.627C134.144 30.1644 133.323 29.6925 132.19 29.2111C130.783 28.5975 129.792 27.9651 129.226 27.3138C128.659 26.6625 128.367 25.8601 128.367 24.9256C128.367 23.7268 128.82 22.764 129.736 22.0277C130.651 21.2915 131.774 20.9233 133.115 20.9233C134.38 20.9233 135.456 21.1782 136.353 21.6974V23.1888C135.258 22.4808 134.134 22.1316 132.964 22.1316C132.001 22.1316 131.218 22.3864 130.632 22.8867C130.038 23.387 129.745 24.0383 129.745 24.8407C129.745 25.5392 129.934 26.1055 130.302 26.5397C130.679 26.974 131.501 27.4742 132.766 28.0312C134.295 28.7202 135.352 29.3527 135.918 29.9379C136.494 30.5231 136.777 31.3066 136.777 32.2789C136.777 33.4493 136.343 34.4122 135.465 35.1673C134.587 35.9319 133.389 36.3095 131.85 36.3095C130.462 36.3283 129.282 35.998 128.329 35.3278Z" fill="white"/>
<path d="M145.187 36.3095C143.044 36.3095 141.355 35.6109 140.099 34.2045C138.853 32.798 138.221 30.9668 138.221 28.7108C138.221 26.2754 138.872 24.3687 140.175 22.9906C141.477 21.6124 143.195 20.9233 145.329 20.9233C147.424 20.9233 149.076 21.603 150.294 22.9717C151.511 24.3404 152.115 26.2282 152.125 28.6447C152.125 30.929 151.511 32.7791 150.275 34.195C149.029 35.6015 147.339 36.3095 145.187 36.3095ZM145.272 22.1221C143.544 22.1221 142.166 22.7074 141.137 23.8779C140.109 25.0483 139.599 26.6625 139.599 28.7391C139.599 30.6647 140.109 32.2033 141.109 33.3644C142.11 34.5254 143.488 35.1107 145.225 35.1107C146.99 35.1107 148.359 34.5349 149.312 33.3833C150.265 32.2317 150.747 30.6459 150.737 28.607C150.737 26.5114 150.256 24.9067 149.302 23.7929C148.359 22.6791 147.009 22.1127 145.272 22.1221Z" fill="white"/>
<path d="M50.4921 24.4536C50.4921 24.7839 50.4921 25.1143 50.4921 25.4447C50.4827 25.5296 50.4733 25.6052 50.4638 25.6901C50.3977 26.4925 50.36 27.3042 50.275 28.1066C50.1429 29.3337 49.8975 30.5419 49.5482 31.7313C47.9058 37.4138 44.6869 41.9824 39.8729 45.4183C35.6913 48.4012 31.0093 49.8926 25.8838 49.9964C24.8738 50.0153 23.8732 49.9586 22.8726 49.8548C21.8909 49.751 20.9281 49.5999 19.9653 49.3734C15.6327 48.3728 11.8286 46.3717 8.5626 43.3605C5.91015 40.9158 3.88069 38.0273 2.47423 34.7047C1.31319 31.9673 0.671316 29.1072 0.529725 26.1338C0.473089 24.85 0.491968 23.5757 0.633558 22.3014C0.75627 21.1592 0.954496 20.0265 1.23768 18.9032C2.23825 14.9387 4.11667 11.4462 6.8352 8.39725C8.76083 6.23564 10.9885 4.47048 13.5183 3.0829C17.0014 1.17615 20.7393 0.156706 24.7039 0.0151158C26.5823 -0.0509595 28.4513 0.10007 30.3014 0.458765C32.2931 0.855217 34.2093 1.47821 36.0405 2.33719C39.5614 3.98908 42.5442 6.33947 44.9796 9.3695C46.8769 11.7293 48.3022 14.3535 49.2461 17.2325C49.6709 18.5351 50.0013 19.866 50.1995 21.2347C50.3034 21.9521 50.36 22.679 50.4261 23.3964C50.4638 23.7456 50.4733 24.1043 50.4921 24.4536ZM25.5062 13.4284C19.1252 13.4379 13.943 18.6389 13.943 25.0294C13.9336 31.4009 19.2102 36.5453 25.5534 36.5359C31.8966 36.517 37.0316 31.3537 37.0411 25.0199C37.0411 18.7522 31.9533 13.4473 25.5062 13.4284ZM24.6755 4.43273C24.6755 4.41385 24.6661 4.39497 24.6661 4.37609C24.0337 4.42329 23.3918 4.44216 22.7594 4.51768C21.5039 4.65927 20.2768 4.94245 19.078 5.3389C16.0952 6.33003 13.4522 7.89696 11.1679 10.0491C9.36494 11.7482 7.93017 13.7116 6.92016 15.977C6.05174 17.9215 5.57033 19.9604 5.45706 22.0937C5.38154 23.6135 5.47594 25.1238 5.81575 26.6057C6.42931 29.2487 7.63755 31.5897 9.46878 33.6003C11.0357 35.3182 12.9047 36.5831 15.1041 37.3666C15.2834 37.4326 15.4628 37.4798 15.6421 37.5365C15.6327 37.4893 15.6043 37.461 15.576 37.4421C14.5377 36.5453 13.6032 35.5542 12.782 34.4498C10.7808 31.769 9.7614 28.7579 9.67644 25.4164C9.63869 23.9438 9.78971 22.4807 10.0635 21.0365C10.441 19.1015 11.0074 17.2325 11.8286 15.439C13.0463 12.7582 14.7642 10.455 17.0202 8.56715C18.9459 6.95303 21.1075 5.76367 23.439 4.87637C23.8543 4.72534 24.2697 4.58375 24.6755 4.43273ZM44.8663 31.7785C44.9418 31.5897 45.0173 31.4198 45.0834 31.2404C45.7441 29.5414 46.0745 27.7668 46.1689 25.945C46.235 24.5668 46.1406 23.2076 45.9046 21.8483C45.6214 20.2059 45.1306 18.6295 44.4132 17.1286C43.3843 14.9576 41.9873 13.0697 40.1183 11.55C37.5319 9.45445 34.5585 8.28397 31.2548 7.93472C30.2636 7.83089 29.2819 7.84033 28.2908 7.9536C27.2619 8.07631 26.2614 8.31229 25.2985 8.70874C24.9965 8.83146 24.6944 8.98248 24.4018 9.12407C24.4018 9.13351 24.4112 9.15239 24.4112 9.16183C24.4773 9.16183 24.5528 9.16183 24.6189 9.16183C25.8555 9.14295 27.092 9.23735 28.3097 9.46389C30.3108 9.82259 32.1987 10.5211 33.9639 11.5217C36.588 13.0225 38.8062 15.0048 40.6941 17.3552C43.4693 20.8289 44.7813 24.8311 44.8946 29.2393C44.9135 30.0888 44.8757 30.9195 44.8663 31.7785ZM12.5649 40.9724C12.6121 41.029 12.631 41.0479 12.6593 41.0668C13.1312 41.4444 13.5938 41.8503 14.0941 42.1995C16.9542 44.2101 20.1541 45.2295 23.6278 45.4278C24.8455 45.5033 26.0726 45.4372 27.2808 45.2484C28.489 45.0691 29.669 44.7765 30.8017 44.3139C34.955 42.6243 37.8906 39.6886 39.6463 35.5731C40.3732 33.874 40.6941 32.0805 40.5997 30.221C40.5997 30.1455 40.5808 30.0605 40.5714 29.985C40.5336 30.0228 40.5148 30.0511 40.4959 30.0888C40.3071 30.5231 40.1183 30.9573 39.9106 31.382C38.6646 33.959 36.9372 36.1583 34.7096 37.9613C33.0199 39.33 31.1509 40.3872 29.1592 41.2367C26.9787 42.1806 24.7039 42.747 22.3252 42.8697C20.9281 42.9452 19.5311 42.8603 18.153 42.6243C16.5388 42.3505 14.9813 41.9069 13.4616 41.3028C13.169 41.2273 12.8858 41.1045 12.5649 40.9724Z" fill="white"/>
</svg>
