<svg width="42" height="47" viewBox="0 0 42 47" fill="none" xmlns="http://www.w3.org/2000/svg">
<path fill-rule="evenodd" clip-rule="evenodd" d="M1.47229 5.44586C0.659167 5.44586 0 6.10503 0 6.91815C0 7.73127 0.659167 8.39044 1.47229 8.39044H2.76309C3.32414 8.39044 3.755 8.65555 4.22425 9.57083C4.61236 10.3279 4.87292 11.2295 5.16693 12.247C5.25933 12.5667 5.35503 12.8979 5.45903 13.2396L8.49001 23.539C8.49964 23.5717 8.5103 23.6038 8.52194 23.6353L10.4136 30.5678C11.1126 33.1296 13.4396 34.9067 16.095 34.9067H31.0513C33.6851 34.9067 35.9986 33.1579 36.7171 30.624L41.1207 15.0929C41.6536 13.2131 40.2416 11.3451 38.2878 11.3451H28.0076V14.2897H38.2878L33.8842 29.8208C33.5249 31.0877 32.3682 31.9621 31.0513 31.9621H16.095C14.7673 31.9621 13.6038 31.0736 13.2543 29.7927L11.3297 22.7383L8.84421 14.2897H19.4496V11.3451H7.97395C7.68369 10.3398 7.33237 9.179 6.84453 8.22746C6.13263 6.83887 4.90361 5.44586 2.76309 5.44586H1.47229ZM16.2038 46.68C18.6432 46.68 20.6207 44.7025 20.6207 42.2631C20.6207 39.8237 18.6432 37.8463 16.2038 37.8463C13.7644 37.8463 11.7869 39.8237 11.7869 42.2631C11.7869 44.7025 13.7644 46.68 16.2038 46.68ZM16.2038 40.7908C17.0169 40.7908 17.6761 41.45 17.6761 42.2631C17.6761 43.0762 17.0169 43.7354 16.2038 43.7354C15.3907 43.7354 14.7315 43.0762 14.7315 42.2631C14.7315 41.45 15.3907 40.7908 16.2038 40.7908ZM30.9267 46.68C33.3661 46.68 35.3436 44.7025 35.3436 42.2631C35.3436 39.8237 33.3661 37.8463 30.9267 37.8463C28.4873 37.8463 26.5098 39.8237 26.5098 42.2631C26.5098 44.7025 28.4873 46.68 30.9267 46.68ZM30.9267 40.7908C31.7398 40.7908 32.399 41.45 32.399 42.2631C32.399 43.0762 31.7398 43.7354 30.9267 43.7354C30.1136 43.7354 29.4544 43.0762 29.4544 42.2631C29.4544 41.45 30.1136 40.7908 30.9267 40.7908Z" fill="#025AAD"/>
<path d="M25.6738 24.8961H22.3296V4.81873C22.0714 5.08762 21.6907 5.39896 21.1877 5.75276C20.6983 6.0924 20.141 6.43205 19.5157 6.7717C18.9039 7.11134 18.2514 7.42976 17.5581 7.72695C16.8784 8.02414 16.2123 8.25765 15.5598 8.42747V4.90364C16.2939 4.69136 17.0687 4.40833 17.8844 4.05453C18.7136 3.68658 19.5225 3.28325 20.3109 2.84454C21.113 2.39168 21.8674 1.92466 22.5743 1.4435C23.2812 0.948179 23.893 0.467014 24.4095 0H25.6738V24.8961Z" fill="#025AAD"/>
</svg>
