<svg width="24" height="20" viewBox="0 0 24 20" fill="none" xmlns="http://www.w3.org/2000/svg">
<path d="M18.9764 16.25C18.1976 16.25 17.5487 16.875 17.5487 17.625C17.5487 18.375 18.1976 19 18.9764 19C19.7551 19 20.4041 18.375 20.4041 17.625C20.4041 16.875 19.7551 16.25 18.9764 16.25ZM18.9764 16.25C18.9764 16.25 18.9764 16.25 8.9174 16.25M8.9174 16.25C8.13864 16.25 7.48967 16.875 7.48967 17.625C7.48967 18.375 8.13864 19 8.9174 19C9.69616 19 10.3451 18.375 10.3451 17.625C10.3451 16.875 9.69616 16.25 8.9174 16.25ZM8.9174 16.25C8.9174 16.25 8.9174 16.25 3.66076 1C3.66076 1 3.66076 1 1 1M7.48967 12.0625C20.1445 12.0625 20.1445 12.0625 20.1445 12.0625C23 3.75 23 3.75 23 3.75C4.63423 3.75 4.63422 3.75 4.63422 3.75" stroke="white" stroke-width="1.25" stroke-miterlimit="8" stroke-linecap="square"/>
</svg>
