<svg width="43" height="51" viewBox="0 0 43 51" fill="none" xmlns="http://www.w3.org/2000/svg">
<path d="M2.35522 6.29493C1.5421 6.29493 0.882935 7.00444 0.882935 7.87967C0.882935 8.7549 1.5421 9.46442 2.35522 9.46442H3.64602C4.20708 9.46442 4.63794 9.74978 5.10718 10.735C5.4953 11.5498 5.75586 12.5204 6.04987 13.6155C6.14227 13.9597 6.23797 14.3162 6.34197 14.684L9.37295 25.7701C9.38257 25.8053 9.39323 25.8399 9.40488 25.8738L11.2965 33.3358C11.9955 36.0933 14.3225 38.0061 16.978 38.0061H31.9342C34.568 38.0061 36.8816 36.1237 37.6 33.3963L42.0036 16.6788C42.5366 14.6555 41.1245 12.6447 39.1707 12.6447H28.8906V15.8142H39.1707L34.7671 32.5317C34.4079 33.8954 33.2511 34.8366 31.9342 34.8366H16.978C15.6502 34.8366 14.4868 33.8802 14.1372 32.5015L12.2126 24.9082L9.72714 15.8142H20.3325V12.6447H8.85688C8.56662 11.5627 8.21531 10.3132 7.72747 9.28899C7.01557 7.79434 5.78654 6.29493 3.64602 6.29493H2.35522Z" fill="#107C41"/>
<path fill-rule="evenodd" clip-rule="evenodd" d="M17.0867 50.6786C19.5261 50.6786 21.5036 48.5501 21.5036 45.9244C21.5036 43.2987 19.5261 41.1702 17.0867 41.1702C14.6474 41.1702 12.6699 43.2987 12.6699 45.9244C12.6699 48.5501 14.6474 50.6786 17.0867 50.6786ZM17.0867 44.3397C17.8999 44.3397 18.559 45.0492 18.559 45.9244C18.559 46.7996 17.8999 47.5092 17.0867 47.5092C16.2736 47.5092 15.6145 46.7996 15.6145 45.9244C15.6145 45.0492 16.2736 44.3397 17.0867 44.3397Z" fill="#107C41"/>
<path fill-rule="evenodd" clip-rule="evenodd" d="M31.8096 50.6786C34.249 50.6786 36.2265 48.5501 36.2265 45.9244C36.2265 43.2987 34.249 41.1702 31.8096 41.1702C29.3703 41.1702 27.3928 43.2987 27.3928 45.9244C27.3928 48.5501 29.3703 50.6786 31.8096 50.6786ZM31.8096 44.3397C32.6228 44.3397 33.2819 45.0492 33.2819 45.9244C33.2819 46.7996 32.6228 47.5092 31.8096 47.5092C30.9965 47.5092 30.3374 46.7996 30.3374 45.9244C30.3374 45.0492 30.9965 44.3397 31.8096 44.3397Z" fill="#107C41"/>
<path d="M26.5567 27.2308H23.2126V5.61991C22.9543 5.90933 22.5737 6.24446 22.0707 6.62528C21.5813 6.99087 21.0239 7.35646 20.3986 7.72205C19.7869 8.08764 19.1343 8.43038 18.441 8.75027C17.7613 9.07016 17.0952 9.3215 16.4427 9.5043V5.71131C17.1768 5.48281 17.9517 5.17815 18.7673 4.79733C19.5965 4.40128 20.4054 3.96714 21.1939 3.49492C21.9959 3.00747 22.7504 2.50478 23.4573 1.98686C24.1642 1.45371 24.7759 0.935791 25.2925 0.433105H26.5567V27.2308Z" fill="#107C41"/>
</svg>
