<svg width="102" height="22" viewBox="0 0 102 22" fill="none" xmlns="http://www.w3.org/2000/svg">
<g clip-path="url(#clip0)">
<path d="M42.4194 4.40014V17.6001H40.1534V7.24181H40.1232L36.0746 17.6001H34.564L30.4247 7.24181H30.3945V17.6001H28.3098V4.40014H31.5728L35.3193 14.1779H35.3797L39.3377 4.40014H42.4194ZM44.2926 5.40847C44.2926 5.04181 44.4135 4.73625 44.6854 4.49181C44.9573 4.24736 45.2595 4.12514 45.622 4.12514C46.0148 4.12514 46.3471 4.24736 46.5888 4.52236C46.8305 4.76681 46.9816 5.07236 46.9816 5.43903C46.9816 5.8057 46.8608 6.11125 46.5888 6.3557C46.3169 6.60014 46.0148 6.72236 45.622 6.72236C45.2292 6.72236 44.9271 6.60014 44.6854 6.3557C44.4437 6.05014 44.2926 5.74459 44.2926 5.40847ZM46.7399 8.12792V17.6001H44.5343V8.12792H46.7399ZM53.417 15.9807C53.7494 15.9807 54.1119 15.889 54.5047 15.7363C54.8975 15.5835 55.26 15.3696 55.5924 15.1251V17.2029C55.2298 17.4168 54.8371 17.5696 54.3839 17.6613C53.9307 17.7529 53.4473 17.814 52.9034 17.814C51.5136 17.814 50.3957 17.3863 49.5497 16.5001C48.6736 15.614 48.2506 14.4835 48.2506 13.139C48.2506 11.6113 48.7038 10.3585 49.58 9.3807C50.4561 8.40292 51.6949 7.91403 53.3264 7.91403C53.7494 7.91403 54.1422 7.97514 54.5651 8.06681C54.9881 8.18903 55.3205 8.31125 55.5622 8.43348V10.5724C55.2298 10.3279 54.8673 10.114 54.5349 9.99181C54.1724 9.83903 53.8098 9.77792 53.4472 9.77792C52.5711 9.77792 51.8762 10.0529 51.3323 10.6335C50.7885 11.214 50.5166 11.9779 50.5166 12.9557C50.5166 13.9029 50.7583 14.6668 51.2719 15.1863C51.8459 15.7057 52.5409 15.9807 53.417 15.9807ZM61.8465 7.97514C62.0278 7.97514 62.1789 7.97514 62.33 8.0057C62.481 8.03625 62.6019 8.06681 62.6925 8.09736V10.3585C62.5717 10.2668 62.4206 10.2057 62.1789 10.114C61.9674 10.0224 61.6955 9.99181 61.3631 9.99181C60.8193 9.99181 60.3661 10.2363 60.0035 10.6946C59.641 11.1529 59.4295 11.8557 59.4295 12.8335V17.6001H57.2239V8.12792H59.4295V9.62514H59.4597C59.6712 9.1057 59.9733 8.70847 60.3661 8.40292C60.7891 8.12792 61.2725 7.97514 61.8465 7.97514ZM62.8134 13.0168C62.8134 11.4585 63.2363 10.2057 64.1125 9.28903C64.9887 8.37236 66.1973 7.91403 67.7683 7.91403C69.2186 7.91403 70.3667 8.34181 71.1824 9.22792C71.9982 10.114 72.4212 11.3057 72.4212 12.8029C72.4212 14.3307 71.9982 15.5529 71.122 16.4696C70.2458 17.3863 69.0675 17.8446 67.5568 17.8446C66.1066 17.8446 64.9585 17.4168 64.1125 16.5613C63.2363 15.6751 62.8134 14.4835 62.8134 13.0168ZM65.1096 12.9251C65.1096 13.9029 65.3211 14.6668 65.7743 15.1863C66.2275 15.7057 66.8619 15.9807 67.6777 15.9807C68.4935 15.9807 69.0977 15.7057 69.5207 15.1863C69.9437 14.6668 70.1552 13.9029 70.1552 12.864C70.1552 11.8557 69.9437 11.0918 69.4905 10.5724C69.0675 10.0529 68.4632 9.80847 67.6777 9.80847C66.8619 9.80847 66.2577 10.0835 65.8045 10.6335C65.3211 11.1529 65.1096 11.9168 65.1096 12.9251ZM75.6842 10.6335C75.6842 10.939 75.7749 11.214 75.9863 11.3974C76.1978 11.5807 76.6208 11.7946 77.3157 12.0696C78.1919 12.4363 78.8264 12.8335 79.1587 13.2613C79.5213 13.7196 79.7026 14.239 79.7026 14.8807C79.7026 15.7668 79.3702 16.5001 78.6753 17.0196C78.0106 17.5696 77.074 17.8446 75.9259 17.8446C75.5331 17.8446 75.1102 17.7835 74.6267 17.6918C74.1433 17.6001 73.7506 17.4779 73.4182 17.3251V15.1251C73.811 15.4001 74.2642 15.6446 74.7174 15.7974C75.1706 15.9501 75.5936 16.0418 75.9863 16.0418C76.4698 16.0418 76.8625 15.9807 77.074 15.8279C77.3157 15.6751 77.4366 15.4613 77.4366 15.1251C77.4366 14.8196 77.3157 14.5446 77.074 14.3613C76.8323 14.1474 76.3489 13.9029 75.6842 13.6279C74.8685 13.2918 74.2944 12.8946 73.9621 12.4668C73.6297 12.039 73.4484 11.489 73.4484 10.8168C73.4484 9.96125 73.7808 9.25847 74.4455 8.70847C75.1102 8.15847 75.9863 7.88347 77.0438 7.88347C77.3762 7.88347 77.7387 7.91403 78.1315 8.0057C78.5243 8.06681 78.8868 8.18903 79.1587 8.2807V10.389C78.8566 10.2057 78.5243 10.0224 78.1315 9.86959C77.7387 9.71681 77.3459 9.6557 76.9834 9.6557C76.5604 9.6557 76.2281 9.74736 76.0166 9.90014C75.8051 10.114 75.6842 10.3279 75.6842 10.6335ZM80.6392 13.0168C80.6392 11.4585 81.0622 10.2057 81.9384 9.28903C82.8145 8.37236 84.0231 7.91403 85.5942 7.91403C87.0444 7.91403 88.1925 8.34181 89.0083 9.22792C89.824 10.114 90.247 11.3057 90.247 12.8029C90.247 14.3307 89.824 15.5529 88.9478 16.4696C88.0716 17.3863 86.8933 17.8446 85.3827 17.8446C83.9324 17.8446 82.7843 17.4168 81.9384 16.5613C81.0924 15.6751 80.6392 14.4835 80.6392 13.0168ZM82.9354 12.9251C82.9354 13.9029 83.1469 14.6668 83.6001 15.1863C84.0533 15.7057 84.6878 15.9807 85.5035 15.9807C86.3193 15.9807 86.9235 15.7057 87.3465 15.1863C87.7695 14.6668 87.981 13.9029 87.981 12.864C87.981 11.8557 87.7695 11.0918 87.3163 10.5724C86.8933 10.0529 86.2891 9.80847 85.5035 9.80847C84.6878 9.80847 84.0835 10.0835 83.6303 10.6335C83.1771 11.1529 82.9354 11.9168 82.9354 12.9251ZM97.5586 9.96125H94.2654V17.6001H92.0296V9.96125H90.4585V8.12792H92.0296V6.81403C92.0296 5.8057 92.3619 5.01125 92.9964 4.36959C93.6309 3.72792 94.4466 3.42236 95.4437 3.42236C95.7156 3.42236 95.9573 3.42236 96.1688 3.45292C96.3803 3.48347 96.5616 3.51403 96.7126 3.57514V5.50014C96.6522 5.46959 96.5011 5.40847 96.3199 5.34736C96.1386 5.28625 95.9271 5.2557 95.6854 5.2557C95.2322 5.2557 94.8696 5.40847 94.6279 5.68347C94.3862 5.98903 94.2654 6.41681 94.2654 6.96681V8.09736H97.5586V5.95847L99.7642 5.28625V8.09736H102V9.9307H99.7642V14.3613C99.7642 14.9418 99.8548 15.3696 100.066 15.5835C100.278 15.8279 100.61 15.9501 101.063 15.9501C101.184 15.9501 101.335 15.9196 101.517 15.8585C101.698 15.7974 101.849 15.7363 102 15.6446V17.4779C101.849 17.5696 101.637 17.6307 101.305 17.6918C100.973 17.7529 100.671 17.7835 100.338 17.7835C99.4016 17.7835 98.7067 17.539 98.2535 17.0196C97.8003 16.5307 97.5586 15.7668 97.5586 14.7585V9.96125Z" fill="#737373"/>
<path d="M10.3329 0H0V10.45H10.3329V0Z" fill="#F25022"/>
<path d="M21.7535 0H11.4205V10.45H21.7535V0Z" fill="#7FBA00"/>
<path d="M10.3329 11.55H0V22H10.3329V11.55Z" fill="#00A4EF"/>
<path d="M21.7535 11.55H11.4205V22H21.7535V11.55Z" fill="#FFB900"/>
</g>
<defs>
<clipPath id="clip0">
<rect width="102" height="22" fill="white"/>
</clipPath>
</defs>
</svg>
