<svg width="215" height="258" viewBox="0 0 215 258" fill="none" xmlns="http://www.w3.org/2000/svg">
<path d="M153.19 222.89C149.741 222.89 146.369 223.913 143.501 225.829C140.633 227.746 138.398 230.469 137.078 233.656C135.758 236.843 135.412 240.349 136.085 243.732C136.758 247.116 138.419 250.223 140.858 252.662C143.297 255.101 146.405 256.762 149.788 257.435C153.171 258.108 156.677 257.763 159.864 256.443C163.051 255.123 165.774 252.887 167.691 250.019C169.607 247.151 170.63 243.779 170.63 240.33C170.625 235.706 168.786 231.274 165.516 228.004C162.247 224.735 157.814 222.895 153.19 222.89ZM153.19 251.77C150.927 251.77 148.716 251.099 146.834 249.842C144.953 248.585 143.487 246.798 142.621 244.708C141.755 242.618 141.528 240.317 141.97 238.098C142.411 235.879 143.501 233.841 145.101 232.241C146.701 230.641 148.739 229.551 150.958 229.11C153.177 228.669 155.478 228.895 157.568 229.761C159.658 230.627 161.445 232.093 162.702 233.974C163.959 235.856 164.63 238.068 164.63 240.33C164.625 243.363 163.418 246.269 161.274 248.414C159.129 250.558 156.223 251.765 153.19 251.77Z" fill="#025AAD"/>
<path d="M79.87 222.89C76.4207 222.89 73.0491 223.913 70.1811 225.829C67.3131 227.746 65.0777 230.469 63.7577 233.656C62.4377 236.843 62.0924 240.349 62.7653 243.732C63.4382 247.116 65.0992 250.223 67.5382 252.662C69.9773 255.101 73.0847 256.762 76.4677 257.435C79.8507 258.108 83.3574 257.763 86.5441 256.443C89.7308 255.123 92.4547 252.887 94.371 250.019C96.2873 247.151 97.3102 243.779 97.3102 240.33C97.3049 235.706 95.4657 231.274 92.1962 228.004C88.9267 224.735 84.4938 222.895 79.87 222.89ZM79.87 251.77C77.6074 251.77 75.3956 251.099 73.5143 249.842C71.633 248.585 70.1668 246.798 69.3009 244.708C68.4351 242.618 68.2084 240.317 68.6498 238.098C69.0912 235.879 70.181 233.841 71.7809 232.241C73.3808 230.641 75.4192 229.551 77.6383 229.11C79.8575 228.669 82.1576 228.895 84.248 229.761C86.3383 230.627 88.1249 232.093 89.382 233.974C90.639 235.856 91.3102 238.068 91.3102 240.33C91.3049 243.363 90.0978 246.269 87.9535 248.414C85.8092 250.558 82.9025 251.765 79.87 251.77Z" fill="#025AAD"/>
<path d="M151.3 203.21C154.04 203.201 156.77 202.885 159.44 202.27L158.07 196.43C155.836 196.942 153.552 197.204 151.26 197.21C147.83 197.21 134.61 197.21 120.83 197.21H79.77C74.5 197.21 63.94 193.12 61.48 184.91C59.86 179.49 55.99 166.24 51.48 150.91C46.48 133.73 40.74 114.12 36.48 99.7198H190.48C191.052 99.689 191.624 99.7965 192.146 100.033C192.668 100.27 193.126 100.629 193.48 101.08C193.897 101.756 194.152 102.52 194.225 103.311C194.297 104.102 194.186 104.899 193.9 105.64C193.05 108.56 190.34 118.2 186.9 130.42L186.14 133.11L191.92 134.73L192.67 132.04C195.97 120.33 198.81 110.21 199.67 107.32C200.228 105.686 200.394 103.945 200.154 102.235C199.915 100.526 199.276 98.8967 198.29 97.4799C197.382 96.289 196.206 95.3284 194.858 94.6753C193.51 94.0222 192.028 93.6949 190.53 93.7198H35.3101C35.1188 93.725 34.9281 93.7451 34.74 93.7798C32.57 86.4798 30.9699 81.2498 30.3799 79.5898C27.7699 72.2198 25.0599 64.5898 12.8699 64.5898H3C2.20435 64.5898 1.44127 64.906 0.878662 65.4686C0.316053 66.0312 0 66.7942 0 67.5898C0 68.3855 0.316053 69.1486 0.878662 69.7112C1.44127 70.2738 2.20435 70.5898 3 70.5898H12.8699C20.4999 70.5898 22.02 73.9598 24.73 81.5898C26.44 86.3998 37.6 124.65 45.73 152.59C50.21 167.95 54.08 181.21 55.73 186.65C58.99 197.49 71.73 203.23 79.73 203.23H151.26L151.3 203.21Z" fill="#025AAD"/>
<path d="M67.1902 5H170.81V87.14H175.81V2.5C175.81 1.83696 175.547 1.20108 175.078 0.732239C174.609 0.263398 173.973 0 173.31 0H64.7002C64.0372 0 63.4012 0.263398 62.9324 0.732239C62.4635 1.20108 62.2002 1.83696 62.2002 2.5V87.14H67.2002L67.1902 5Z" fill="#025AAD"/>
<path d="M90.1902 23.7903C90.9436 22.7966 91.3385 21.577 91.3103 20.3303C91.3192 19.5722 91.1413 18.8235 90.7925 18.1503C90.4437 17.4771 89.9348 16.9002 89.3103 16.4703C87.7305 15.4016 85.8447 14.8784 83.9402 14.9803H76.5103V38.3703H84.0203C86.1747 38.4591 88.2939 37.8022 90.0203 36.5103C90.7716 35.9461 91.3777 35.211 91.7881 34.3658C92.1985 33.5206 92.4014 32.5896 92.3801 31.6503C92.4096 30.9343 92.2976 30.2195 92.0505 29.5469C91.8034 28.8742 91.4261 28.2569 90.9402 27.7303C89.9095 26.6904 88.5396 26.0552 87.0801 25.9403V25.8803C88.3133 25.5335 89.4032 24.8011 90.1902 23.7903ZM88.2502 31.5103C88.2744 32.0305 88.1798 32.5494 87.9736 33.0276C87.7674 33.5058 87.4552 33.9308 87.0603 34.2703C86.1003 34.9959 84.9108 35.3509 83.7102 35.2703H80.4001V27.8703H83.1902C86.5202 27.8703 88.1902 29.0803 88.1902 31.5103H88.2502ZM86.0801 23.8003C85.1771 24.5021 84.0524 24.8569 82.9102 24.8003H80.4001V18.1503H83.1902C85.8702 18.1503 87.1902 19.1503 87.1902 21.1503C87.2113 21.6502 87.1186 22.1484 86.9194 22.6073C86.7202 23.0663 86.4198 23.4742 86.0403 23.8003H86.0801Z" fill="#025AAD"/>
<path d="M110.81 21.6802H107.03V31.2902C107.087 32.4688 106.698 33.6257 105.94 34.5302C105.602 34.9307 105.179 35.2502 104.701 35.4648C104.224 35.6795 103.704 35.7839 103.18 35.7702C100.86 35.7702 99.7 34.2702 99.7 31.2702V21.6802H95.9199V31.6802C95.9199 36.4202 97.8932 38.7902 101.84 38.7902C102.892 38.8395 103.936 38.5824 104.845 38.0498C105.754 37.5173 106.489 36.7322 106.96 35.7902H107.03V38.4302H110.81V21.6802Z" fill="#025AAD"/>
<path d="M126.39 21.6799L122.19 33.8399C122.05 34.3699 121.95 34.7599 121.9 35.0099H121.82C121.673 34.3433 121.573 33.9433 121.52 33.8099L117.52 21.6699H113.32L119.96 38.3399L118.84 41.08C118.582 41.7057 118.141 42.2395 117.576 42.6121C117.011 42.9848 116.347 43.1791 115.67 43.1699C115.115 43.1568 114.565 43.0591 114.04 42.8799V46.02C114.695 46.1779 115.367 46.2518 116.04 46.2399C118.87 46.2399 121.04 44.5099 122.63 41.0499L130.19 21.6799H126.39Z" fill="#025AAD"/>
<path d="M78.0403 75.5699C79.0738 76.666 80.3313 77.5263 81.7273 78.0923C83.1234 78.6583 84.6252 78.9167 86.1302 78.8499C87.6622 78.919 89.1912 78.6574 90.6131 78.0827C92.035 77.5081 93.3163 76.6341 94.3702 75.5199C96.4302 73.2999 97.4569 70.2832 97.4502 66.4699C97.5922 63.3454 96.5168 60.2877 94.4502 57.9399C93.4405 56.8583 92.2094 56.0072 90.8409 55.4446C89.4724 54.882 87.9988 54.6212 86.5203 54.6799C84.9579 54.6023 83.3969 54.8623 81.9439 55.4421C80.4909 56.0219 79.1799 56.9079 78.1001 58.0399C75.9464 60.5288 74.8361 63.7526 75.0003 67.0399C74.8607 70.1711 75.9519 73.2327 78.0403 75.5699ZM81.0901 60.4799C81.7196 59.709 82.5177 59.0927 83.4227 58.6784C84.3276 58.2641 85.3155 58.0627 86.3104 58.0899C87.2942 58.0435 88.2753 58.2251 89.1773 58.6206C90.0793 59.0162 90.8779 59.6148 91.5103 60.3699C92.8687 62.2469 93.5331 64.5373 93.3902 66.8499C93.5277 69.1278 92.8389 71.379 91.4502 73.1899C90.7957 73.9441 89.9788 74.5401 89.0608 74.9333C88.1429 75.3264 87.1477 75.5065 86.1502 75.4599C85.1707 75.4873 84.1982 75.2865 83.3096 74.8734C82.421 74.4604 81.6408 73.8464 81.0303 73.0799C79.7484 71.2265 79.0667 69.024 79.0774 66.7705C79.0882 64.517 79.7907 62.3211 81.0901 60.4799Z" fill="#025AAD"/>
<path d="M109.02 56.3699C109.629 56.361 110.229 56.5127 110.76 56.8099V53.6799C109.653 53.3442 108.481 53.2789 107.343 53.4895C106.205 53.7 105.134 54.1803 104.22 54.8899C103.642 55.4143 103.187 56.0601 102.888 56.7811C102.589 57.5021 102.453 58.2803 102.49 59.0599V61.7699H99.6401V64.7699H102.49V78.4999H106.28V64.7299H110.19V61.7299H106.31V59.4599C106.277 57.3999 107.18 56.3699 109.02 56.3699Z" fill="#025AAD"/>
<path d="M120.53 56.3699C121.142 56.3597 121.746 56.5115 122.28 56.8099V53.6799C121.173 53.3442 120.001 53.2789 118.863 53.4895C117.725 53.7 116.654 54.1803 115.74 54.8899C115.162 55.4143 114.707 56.0601 114.408 56.7811C114.109 57.5021 113.973 58.2803 114.01 59.0599V61.7699H111.19V64.7699H114.05V78.4999H117.83V64.7299H121.7V61.7299H117.82V59.4599C117.78 57.4099 118.7 56.3699 120.53 56.3699Z" fill="#025AAD"/>
<path d="M127.89 54.5599C127.448 54.15 126.863 53.9278 126.26 53.9399C125.669 53.9298 125.098 54.1525 124.67 54.5599C124.454 54.7547 124.283 54.9943 124.169 55.262C124.055 55.5297 124.001 55.8191 124.01 56.1099C124.002 56.3991 124.057 56.6865 124.171 56.9524C124.285 57.2182 124.455 57.4562 124.67 57.6499C125.113 58.0449 125.687 58.2632 126.28 58.2632C126.874 58.2632 127.447 58.0449 127.89 57.6499C128.103 57.4604 128.273 57.2277 128.388 56.9673C128.504 56.7069 128.563 56.4248 128.56 56.1399C128.573 55.8434 128.519 55.5477 128.403 55.2744C128.287 55.0011 128.112 54.7571 127.89 54.5599Z" fill="#025AAD"/>
<path d="M128.13 61.7598H124.35V78.4598H128.13V61.7598Z" fill="#025AAD"/>
<path d="M141.33 64.3799C142.681 64.3918 143.99 64.8527 145.05 65.6899V62.1599C143.789 61.6141 142.425 61.3447 141.05 61.3699C139.842 61.3121 138.635 61.5044 137.504 61.9345C136.374 62.3647 135.344 63.0236 134.48 63.8699C133.65 64.7554 133.005 65.7983 132.585 66.937C132.164 68.0757 131.975 69.2872 132.03 70.4999C131.99 71.6016 132.171 72.7002 132.563 73.7307C132.954 74.7613 133.549 75.7029 134.31 76.4999C135.098 77.2778 136.036 77.8853 137.069 78.2844C138.101 78.6836 139.205 78.8659 140.31 78.8199C141.965 78.8596 143.601 78.4593 145.05 77.6599V74.3699C143.978 75.2918 142.614 75.8054 141.2 75.8199C140.486 75.8545 139.773 75.7389 139.106 75.4805C138.439 75.2221 137.834 74.8267 137.33 74.3199C136.327 73.2012 135.809 71.7301 135.89 70.2299C135.82 68.6668 136.37 67.1392 137.42 65.9799C137.921 65.4514 138.529 65.0354 139.203 64.7596C139.877 64.4838 140.602 64.3543 141.33 64.3799Z" fill="#025AAD"/>
<path d="M162.93 69.6799C163.06 67.4832 162.393 65.3134 161.05 63.5699C160.39 62.8267 159.571 62.2427 158.653 61.8617C157.735 61.4807 156.743 61.3125 155.75 61.3699C154.676 61.3449 153.608 61.5507 152.619 61.9734C151.631 62.396 150.745 63.0257 150.02 63.8199C148.445 65.55 147.615 67.8316 147.71 70.1698C147.567 72.4945 148.314 74.7866 149.8 76.5799C150.547 77.3498 151.451 77.9508 152.449 78.3423C153.448 78.7339 154.519 78.9069 155.59 78.8498C157.684 78.9409 159.762 78.4457 161.59 77.4198V74.4198C160.164 75.4588 158.444 76.0158 156.68 76.0099C155.319 76.0908 153.979 75.643 152.94 74.7599C152.469 74.2955 152.098 73.7387 151.852 73.1243C151.606 72.51 151.49 71.8514 151.51 71.1899H162.9L162.93 69.6799ZM151.54 68.4599C151.657 67.2986 152.148 66.2068 152.94 65.3498C153.288 64.9646 153.715 64.6582 154.191 64.4513C154.667 64.2443 155.181 64.1415 155.7 64.1498C156.194 64.1262 156.686 64.2168 157.139 64.4145C157.591 64.6123 157.992 64.9118 158.31 65.2898C159.007 66.1957 159.361 67.3184 159.31 68.4599H151.54Z" fill="#025AAD"/>
<path d="M214.19 154.75C214.172 154.201 214.099 153.655 213.97 153.12C213.794 152.081 213.413 151.087 212.851 150.195C212.289 149.303 211.556 148.531 210.695 147.923C209.833 147.315 208.86 146.884 207.831 146.653C206.803 146.423 205.739 146.398 204.7 146.58C204.04 146.66 203.39 146.87 202.7 147.03C202.344 145.898 201.751 144.854 200.959 143.97C200.168 143.085 199.196 142.379 198.11 141.9C197.009 141.407 195.816 141.152 194.61 141.152C193.404 141.152 192.211 141.407 191.11 141.9C188.75 137.6 185.25 135.9 180.44 137.16C180.44 136.99 180.44 136.8 180.44 136.61C180.44 133.07 180.44 129.52 180.44 125.98C180.498 123.861 179.866 121.78 178.64 120.05C177.866 118.949 176.854 118.036 175.68 117.377C174.506 116.719 173.199 116.332 171.856 116.246C170.512 116.16 169.167 116.376 167.918 116.878C166.669 117.381 165.549 118.157 164.64 119.15C163.802 120.026 163.15 121.062 162.722 122.196C162.294 123.33 162.099 124.539 162.15 125.75C162.15 136.644 162.15 147.53 162.15 158.41V159.41C161.23 157.81 160.44 156.36 159.59 154.96C158.978 153.956 158.144 153.104 157.153 152.469C156.162 151.835 155.039 151.435 153.87 151.3C148.03 150.3 142.87 156.05 144.28 161.58C145.219 164.804 146.43 167.942 147.9 170.96C149.06 173.52 150.33 176.02 151.63 178.51C152.63 180.38 153.63 182.21 154.73 184.01C155.98 186.01 157.38 188.01 158.61 190.01C160.225 192.631 161.483 195.456 162.35 198.41C163.12 201.13 164.07 203.79 163.9 206.75C163.69 210.41 163.9 214.09 163.9 217.75C163.849 218.252 163.909 218.759 164.078 219.234C164.247 219.709 164.519 220.141 164.875 220.498C165.231 220.855 165.662 221.128 166.137 221.298C166.612 221.468 167.118 221.53 167.62 221.48C179.96 221.48 192.3 221.48 204.62 221.48C205.128 221.497 205.633 221.409 206.105 221.223C206.578 221.036 207.006 220.755 207.365 220.396C207.724 220.037 208.006 219.608 208.193 219.135C208.379 218.663 208.467 218.158 208.45 217.65C208.35 214.31 208.45 210.96 208.45 207.65C208.417 205.124 208.702 202.604 209.3 200.15C210.07 196.77 210.91 193.4 211.65 190.02C212.21 187.44 212.65 184.85 213.18 182.26C214.006 178.618 214.474 174.904 214.58 171.17C214.47 165.68 214.33 160.22 214.19 154.75ZM202.57 215.75H169.52V208.44H202.57V215.75ZM207.74 179.52C207.26 181.77 206.94 184.06 206.46 186.31C205.73 189.72 204.9 193.11 204.14 196.51C203.68 198.51 203.28 200.6 202.84 202.71H169.4C168.94 200.99 168.5 199.29 168.02 197.61C166.791 193.411 164.965 189.411 162.6 185.73C160.83 182.94 159.04 180.15 157.41 177.26C155.97 174.7 154.69 172.05 153.41 169.39C152.27 166.92 151.29 164.39 150.26 161.86C150.08 161.44 150.02 160.97 149.86 160.54C149.713 160.037 149.707 159.503 149.843 158.997C149.98 158.491 150.254 158.032 150.634 157.671C151.014 157.31 151.487 157.061 152 156.952C152.512 156.842 153.046 156.876 153.54 157.05C153.894 157.202 154.214 157.422 154.482 157.698C154.75 157.975 154.96 158.302 155.1 158.66C156.04 160.42 156.9 162.23 157.82 164C159.31 166.88 160.82 169.74 162.34 172.63C162.532 173.008 162.805 173.338 163.139 173.599C163.472 173.86 163.859 174.045 164.272 174.14C164.685 174.235 165.113 174.239 165.528 174.151C165.942 174.063 166.332 173.885 166.67 173.63C167.014 173.373 167.291 173.037 167.479 172.651C167.667 172.265 167.76 171.839 167.75 171.41V125.82C167.75 123.62 169.05 122.1 171 122.01C171.888 121.957 172.762 122.252 173.436 122.833C174.11 123.414 174.531 124.234 174.61 125.12C174.61 125.42 174.61 125.73 174.61 126.04C174.61 135.12 174.61 144.204 174.61 153.29C174.61 155.75 174.61 158.21 174.61 160.67C174.576 161.162 174.668 161.654 174.879 162.1C175.089 162.545 175.411 162.929 175.812 163.215C176.213 163.501 176.681 163.68 177.171 163.733C177.661 163.786 178.157 163.713 178.61 163.52C179.136 163.289 179.579 162.9 179.876 162.408C180.173 161.916 180.311 161.344 180.27 160.77C180.27 155.77 180.27 150.84 180.27 145.87C180.251 145.389 180.319 144.908 180.47 144.45C180.654 143.797 181.077 143.236 181.655 142.88C182.233 142.524 182.924 142.399 183.59 142.53C184.274 142.675 184.886 143.053 185.321 143.601C185.756 144.149 185.985 144.831 185.97 145.53C185.97 148.04 185.97 150.53 185.97 153.05C185.97 155.72 185.97 158.38 185.97 161.05C185.979 161.53 186.11 161.999 186.352 162.413C186.594 162.827 186.938 163.173 187.352 163.415C187.765 163.658 188.234 163.791 188.714 163.801C189.193 163.81 189.667 163.696 190.09 163.47C190.572 163.245 190.976 162.881 191.25 162.425C191.524 161.969 191.656 161.442 191.63 160.91C191.63 157.17 191.63 153.43 191.63 149.69C191.64 149.207 191.774 148.734 192.018 148.316C192.263 147.899 192.611 147.552 193.028 147.307C193.445 147.062 193.918 146.928 194.402 146.919C194.885 146.909 195.363 147.023 195.79 147.25C196.275 147.541 196.671 147.96 196.934 148.461C197.197 148.962 197.317 149.526 197.28 150.09C197.28 153.69 197.28 157.3 197.28 160.91C197.323 161.641 197.644 162.327 198.176 162.829C198.709 163.331 199.413 163.611 200.145 163.611C200.877 163.611 201.581 163.331 202.114 162.829C202.646 162.327 202.967 161.641 203.01 160.91C203.01 158.91 203.01 156.99 203.01 155.03C202.996 154.599 203.085 154.172 203.269 153.782C203.453 153.392 203.728 153.052 204.07 152.79C205.84 151.42 207.77 152.32 208.22 154.37C208.296 154.803 208.326 155.242 208.31 155.68C208.42 159.86 208.54 164.04 208.61 168.21C208.769 171.986 208.49 175.768 207.78 179.48L207.74 179.52Z" fill="#025AAD"/>
</svg>
