<svg width="38" height="46" viewBox="0 0 38 46" fill="none" xmlns="http://www.w3.org/2000/svg">
<path d="M18.418 0C19.384 0 20.1671 0.774011 20.1671 1.7288V21.2069L25.4627 15.94C26.1458 15.2648 27.2532 15.2648 27.9363 15.94C28.6194 16.6151 28.6194 17.7097 27.9363 18.3848L19.6548 26.603C18.9718 27.2782 17.8643 27.2782 17.1812 26.603L8.87936 18.3848C8.19629 17.7097 8.19629 16.6151 8.87936 15.94C9.56242 15.2648 10.6699 15.2648 11.353 15.94L16.6689 21.2069V1.7288C16.6689 0.774011 17.452 0 18.418 0Z" fill="#0078D4"/>
<path fill-rule="evenodd" clip-rule="evenodd" d="M14.2241 9.09924H6.27546C2.80962 9.09924 0 11.849 0 15.241V33.6664C0 37.0585 2.80962 39.8082 6.27546 39.8082H12.5509V41.3437C12.5509 42.1917 11.8485 42.8791 10.9821 42.8791H9.41319C8.54673 42.8791 7.84433 43.5666 7.84433 44.4146C7.84433 45.2626 8.54673 45.95 9.41319 45.95H28.2396C29.106 45.95 29.8084 45.2626 29.8084 44.4146C29.8084 43.5666 29.106 42.8791 28.2396 42.8791H26.6707C25.8043 42.8791 25.1019 42.1917 25.1019 41.3437V39.8082H31.3773C34.8432 39.8082 37.6528 37.0585 37.6528 33.6664V15.241C37.6528 11.849 34.8432 9.09924 31.3773 9.09924H22.5914V12.1701H31.3773C33.1102 12.1701 34.515 13.545 34.515 15.241V30.5955H3.13773V15.241C3.13773 13.545 4.54254 12.1701 6.27546 12.1701H14.2241V9.09924ZM21.9641 41.3437C21.9641 41.8821 22.0585 42.3989 22.2319 42.8791H15.4208C15.5943 42.3989 15.6887 41.8821 15.6887 41.3437V39.8082H21.9641V41.3437ZM34.515 33.6664C34.515 35.3624 33.1102 36.7373 31.3773 36.7373H6.27546C4.54254 36.7373 3.13773 35.3624 3.13773 33.6664H34.515Z" fill="#0078D4"/>
</svg>
