<svg width="39" height="47" viewBox="0 0 39 47" fill="none" xmlns="http://www.w3.org/2000/svg">
<path d="M19.0916 0.580811C20.0576 0.580811 20.8407 1.35482 20.8407 2.30961V21.7877L26.1363 16.5208C26.8194 15.8456 27.9268 15.8456 28.6099 16.5208C29.293 17.1959 29.293 18.2905 28.6099 18.9657L20.3284 27.1838C19.6454 27.859 18.5379 27.859 17.8548 27.1838L9.55294 18.9657C8.86988 18.2905 8.86988 17.1959 9.55294 16.5208C10.236 15.8456 11.3435 15.8456 12.0265 16.5208L17.3425 21.7877V2.30961C17.3425 1.35482 18.1256 0.580811 19.0916 0.580811Z" fill="#646DE2"/>
<path fill-rule="evenodd" clip-rule="evenodd" d="M6.94905 9.68002C3.4832 9.68002 0.673584 12.4298 0.673584 15.8218V34.2472C0.673584 37.6392 3.4832 40.389 6.94905 40.389H13.2245V41.9245C13.2245 42.7725 12.5221 43.4599 11.6556 43.4599H10.0868C9.22032 43.4599 8.51791 44.1474 8.51791 44.9954C8.51791 45.8434 9.22032 46.5308 10.0868 46.5308H28.9132C29.7796 46.5308 30.482 45.8434 30.482 44.9954C30.482 44.1474 29.7796 43.4599 28.9132 43.4599H27.3443C26.4778 43.4599 25.7754 42.7725 25.7754 41.9245V40.389H32.0509C35.5167 40.389 38.3264 37.6392 38.3264 34.2472V15.8218C38.3264 12.4298 35.5167 9.68002 32.0509 9.68002H6.94905ZM22.6377 41.9245C22.6377 42.4628 22.7321 42.9797 22.9055 43.4599H16.0944C16.2679 42.9797 16.3622 42.4628 16.3622 41.9245V40.389H22.6377V41.9245ZM35.1886 34.2472C35.1886 35.9432 33.7838 37.3181 32.0509 37.3181H6.94905C5.21613 37.3181 3.81132 35.9432 3.81132 34.2472H35.1886ZM32.0509 12.7509C33.7838 12.7509 35.1886 14.1258 35.1886 15.8218V31.1763H3.81132V15.8218C3.81132 14.1258 5.21613 12.7509 6.94905 12.7509H32.0509Z" fill="#646DE2"/>
</svg>
