<svg width="43" height="45" viewBox="0 0 43 45" fill="none" xmlns="http://www.w3.org/2000/svg">
<path d="M41.3042 6.46492L36.8072 1.73418C36.0421 0.936694 35.008 0.489484 33.9303 0.490113H33.8732C33.3575 0.496881 32.8483 0.612966 32.3763 0.831424C31.9043 1.04988 31.4791 1.36622 31.1262 1.76147C30.0461 2.96188 7.28569 27.0794 7.0572 27.3249C6.99648 27.3876 6.94247 27.4572 6.89619 27.5323C6.87344 27.5711 6.85264 27.6112 6.83388 27.6523C6.81361 27.6851 6.79624 27.7198 6.78196 27.756C6.58983 28.2361 3.49488 36.0116 2.50824 38.9144C2.36672 39.2895 2.25554 39.6764 2.17588 40.0712C2.1051 40.4308 2.10784 40.8021 2.18393 41.1605C2.26003 41.5189 2.40773 41.8562 2.61727 42.1501C2.67921 42.237 2.75268 42.3141 2.83539 42.3792C3.25699 42.7172 3.77472 42.896 4.30495 42.8867C4.47884 42.8858 4.65243 42.8712 4.82424 42.843C5.19892 42.7531 5.56685 42.6345 5.92513 42.4884C8.7137 41.4407 16.2434 38.1232 16.5601 37.9923C16.7159 37.9265 16.8572 37.8281 16.9756 37.7031C17.2041 37.463 40.1566 13.5474 41.299 12.4124C41.6765 12.0416 41.9784 11.594 42.1864 11.0969C42.3944 10.5998 42.5041 10.0635 42.509 9.52053C42.5109 8.95273 42.4054 8.39018 42.1986 7.8656C41.9917 7.34103 41.6877 6.86491 41.3042 6.46492ZM13.7508 36.2789C12.3332 36.8955 10.3027 37.774 8.46445 38.5488L6.26268 36.2462C7.00006 34.3146 7.82055 32.1757 8.41773 30.6915L13.7508 36.2789ZM4.92294 39.9893L4.96446 39.8529C5.04754 39.6092 5.14618 39.3309 5.26042 39.0181L5.84722 39.6346L5.05276 39.9402L4.92294 39.9893ZM39.4971 10.4536C38.4585 11.4903 20.4029 30.2878 16.0408 34.833L14.6699 33.387L33.9823 13.0945C34.2033 12.8346 34.3214 12.4957 34.3121 12.1472C34.3028 11.7988 34.1669 11.4673 33.9324 11.2208C33.6978 10.9743 33.3823 10.8316 33.0507 10.8218C32.7191 10.8121 32.3965 10.9361 32.1492 11.1684L12.8369 31.4445L9.80939 28.2634C14.1299 23.6855 32.0245 4.71885 33.0112 3.62211C33.1256 3.48975 33.2651 3.38401 33.4207 3.31165C33.5763 3.2393 33.7446 3.20193 33.9147 3.20197C34.1075 3.20021 34.2986 3.23887 34.4769 3.3157C34.6553 3.39253 34.8172 3.50597 34.9533 3.64939L39.4556 8.37467C39.7246 8.66773 39.8753 9.05878 39.8762 9.46596C39.884 9.64951 39.8542 9.83268 39.7888 10.0031C39.7234 10.1735 39.6239 10.3271 39.4971 10.4536Z" fill="#0078D4"/>
<path d="M32.8863 23.6637C32.6411 23.4156 32.313 23.2785 31.9726 23.2821C31.6322 23.2857 31.3067 23.4297 31.0664 23.683C30.826 23.9363 30.6899 24.2786 30.6875 24.6363C30.685 24.994 30.8163 25.3384 31.0532 25.5953L38.1363 33.0433L30.2535 41.3317L29.2565 40.284L30.9649 38.4889C31.186 38.229 31.304 37.89 31.2948 37.5416C31.2855 37.1931 31.1496 36.8617 30.915 36.6152C30.6804 36.3687 30.365 36.2259 30.0334 36.2162C29.7018 36.2064 29.3792 36.3304 29.1318 36.5627L27.4234 38.3579L26.0005 36.8628L27.709 35.0677C27.9458 34.8108 28.0772 34.4664 28.0747 34.1087C28.0722 33.751 27.9362 33.4086 27.6958 33.1554C27.4554 32.9021 27.13 32.7581 26.7896 32.7545C26.4492 32.7509 26.1211 32.888 25.8759 33.1361L24.1622 34.9313L23.1652 33.8836C22.9221 33.6268 22.5919 33.4819 22.2472 33.4809C21.9024 33.4798 21.5714 33.6227 21.3269 33.8782C21.0825 34.1336 20.9446 34.4806 20.9436 34.8428C20.9426 35.2051 21.0786 35.5529 21.3217 35.8097L29.3292 44.2236C29.5725 44.4785 29.9021 44.6216 30.2457 44.6216C30.5893 44.6216 30.9189 44.4785 31.1622 44.2236L40.8885 34.0037C41.1311 33.748 41.2673 33.4016 41.2673 33.0406C41.2673 32.6796 41.1311 32.3332 40.8885 32.0775L32.8863 23.6637Z" fill="#0078D4"/>
<path d="M7.20767 20.9735L8.71881 22.5613C8.96332 22.8102 9.29109 22.9482 9.6315 22.9456C9.9719 22.943 10.2977 22.8 10.5388 22.5475C10.7798 22.2949 10.9168 21.9529 10.9202 21.5953C10.9236 21.2376 10.7933 20.8928 10.5571 20.6352L9.95992 20.0077L11.6684 18.2125C11.9122 17.9564 12.0491 17.609 12.0491 17.2467C12.0491 16.8845 11.9122 16.5371 11.6684 16.281C11.5477 16.1541 11.4044 16.0535 11.2467 15.9849C11.089 15.9162 10.9199 15.8809 10.7492 15.8809C10.4045 15.8809 10.0739 16.0248 9.8301 16.281L8.12162 18.0761L6.69878 16.5811L8.40725 14.7859C8.53892 14.6622 8.64521 14.5116 8.71957 14.3433C8.79394 14.175 8.83482 13.9925 8.83976 13.807C8.8447 13.6216 8.81358 13.4369 8.74829 13.2645C8.683 13.0921 8.58493 12.9355 8.46006 12.8043C8.33518 12.6731 8.18612 12.57 8.02203 12.5014C7.85795 12.4328 7.68226 12.4001 7.50573 12.4053C7.3292 12.4105 7.15555 12.4535 6.99538 12.5316C6.8352 12.6098 6.69185 12.7214 6.57415 12.8598L4.86574 14.6549L3.61944 13.3454L11.5074 5.05705L18.4503 12.3469C18.6936 12.6018 19.0232 12.7449 19.3668 12.7449C19.7104 12.7449 20.04 12.6018 20.2834 12.3469C20.4043 12.2201 20.5002 12.0696 20.5656 11.9039C20.6311 11.7382 20.6648 11.5605 20.6648 11.3811C20.6648 11.2016 20.6311 11.024 20.5656 10.8582C20.5002 10.6925 20.4043 10.542 20.2834 10.4153L12.4317 2.16513C12.3111 2.0381 12.1679 1.93731 12.0101 1.86854C11.8524 1.79977 11.6833 1.76437 11.5126 1.76437C11.3418 1.76437 11.1728 1.79977 11.015 1.86854C10.8573 1.93731 10.714 2.0381 10.5934 2.16513L0.872382 12.3796C0.751484 12.5063 0.655555 12.6568 0.590108 12.8226C0.524661 12.9883 0.490967 13.166 0.490967 13.3454C0.490967 13.5248 0.524661 13.7025 0.590108 13.8682C0.655555 14.0339 0.751484 14.1845 0.872382 14.3112L7.20767 20.968V20.9735Z" fill="#0078D4"/>
</svg>
