<svg width="43" height="41" viewBox="0 0 43 41" fill="none" xmlns="http://www.w3.org/2000/svg">
<path d="M40.8132 5.55082L36.3162 1.15579C35.5511 0.414891 34.517 -0.0005841 33.4394 6.16336e-07H33.3823C32.8665 0.00628868 32.3573 0.114136 31.8853 0.317091C31.4133 0.520046 30.9881 0.813934 30.6352 1.18113C29.5551 2.29637 6.79472 24.7024 6.56623 24.9305C6.50551 24.9888 6.4515 25.0534 6.40522 25.1231C6.38247 25.1592 6.36167 25.1965 6.34291 25.2347C6.32264 25.2652 6.30527 25.2974 6.291 25.331C6.09886 25.7771 3.00392 33.0007 2.01727 35.6976C1.87575 36.0461 1.76457 36.4055 1.68492 36.7723C1.61413 37.1063 1.61687 37.4513 1.69297 37.7843C1.76906 38.1172 1.91677 38.4306 2.1263 38.7036C2.18825 38.7844 2.26171 38.8561 2.34442 38.9165C2.76603 39.2306 3.28375 39.3967 3.81398 39.388C3.98788 39.3872 4.16146 39.3736 4.33327 39.3474C4.70795 39.2639 5.07589 39.1537 5.43416 39.0179C8.22273 38.0446 15.7524 34.9625 16.0692 34.8409C16.2249 34.7798 16.3663 34.6884 16.4846 34.5722C16.7131 34.3492 39.6656 12.1307 40.808 11.0763C41.1855 10.7317 41.4874 10.316 41.6954 9.85413C41.9034 9.3923 42.0132 8.89406 42.018 8.38959C42.02 7.86208 41.9144 7.33945 41.7076 6.8521C41.5008 6.36476 41.1968 5.92242 40.8132 5.55082ZM13.2599 33.2491C11.8422 33.822 9.81176 34.6381 7.97348 35.3579L5.77171 33.2187C6.5091 31.4242 7.32958 29.4371 7.92677 28.0582L13.2599 33.2491ZM4.43197 36.6962L4.47349 36.5695C4.55658 36.3431 4.65521 36.0845 4.76946 35.7939L5.35625 36.3667L4.56179 36.6506L4.43197 36.6962ZM39.0061 9.25643C37.9675 10.2196 19.9119 27.6831 15.5499 31.9058L14.1789 30.5624L33.4913 11.7099C33.7124 11.4685 33.8304 11.1536 33.8211 10.8299C33.8118 10.5062 33.676 10.1982 33.4414 9.96921C33.2068 9.74022 32.8913 9.60758 32.5597 9.59853C32.2281 9.58947 31.9055 9.70467 31.6582 9.9205L12.3459 28.7578L9.31842 25.8024C13.6389 21.5493 31.5336 3.92866 32.5202 2.90974C32.6346 2.78678 32.7741 2.68854 32.9297 2.62131C33.0853 2.55409 33.2536 2.51938 33.4238 2.51941C33.6165 2.51778 33.8076 2.5537 33.986 2.62507C34.1643 2.69645 34.3263 2.80184 34.4624 2.93509L38.9646 7.32505C39.2336 7.59731 39.3843 7.96061 39.3852 8.3389C39.393 8.50942 39.3632 8.67959 39.2978 8.83789C39.2324 8.99619 39.133 9.13893 39.0061 9.25643Z" fill="#9332BF"/>
<path d="M32.3953 21.5291C32.1501 21.2986 31.822 21.1713 31.4816 21.1746C31.1412 21.178 30.8158 21.3117 30.5754 21.547C30.335 21.7823 30.199 22.1004 30.1965 22.4327C30.194 22.765 30.3254 23.0849 30.5622 23.3236L37.6453 30.2431L29.7625 37.9433L28.7655 36.97L30.4739 35.3022C30.695 35.0608 30.8131 34.7459 30.8038 34.4222C30.7945 34.0985 30.6586 33.7905 30.424 33.5615C30.1894 33.3325 29.874 33.1999 29.5424 33.1908C29.2108 33.1818 28.8882 33.297 28.6409 33.5128L26.9324 35.1806L25.5095 33.7916L27.218 32.1238C27.4549 31.8851 27.5862 31.5652 27.5837 31.2329C27.5813 30.9006 27.4452 30.5825 27.2048 30.3472C26.9645 30.1119 26.639 29.9782 26.2986 29.9748C25.9582 29.9715 25.6301 30.0988 25.3849 30.3293L23.6712 31.9971L22.6743 31.0238C22.4312 30.7852 22.1009 30.6506 21.7562 30.6496C21.4114 30.6487 21.0804 30.7814 20.836 31.0187C20.5915 31.256 20.4536 31.5784 20.4526 31.9149C20.4517 32.2515 20.5877 32.5746 20.8308 32.8132L28.8382 40.63C29.0815 40.8668 29.4111 40.9998 29.7548 40.9998C30.0984 40.9998 30.4279 40.8668 30.6712 40.63L40.3976 31.1353C40.6401 30.8978 40.7763 30.576 40.7763 30.2406C40.7763 29.9052 40.6401 29.5834 40.3976 29.3459L32.3953 21.5291Z" fill="#9332BF"/>
<path d="M6.7167 19.0298L8.22785 20.505C8.47235 20.7362 8.80013 20.8644 9.14053 20.862C9.48094 20.8596 9.80678 20.7267 10.0478 20.4921C10.2889 20.2575 10.4258 19.9398 10.4292 19.6075C10.4327 19.2752 10.3023 18.9549 10.0661 18.7155L9.46895 18.1326L11.1774 16.4648C11.4212 16.2268 11.5581 15.9041 11.5581 15.5675C11.5581 15.231 11.4212 14.9082 11.1774 14.6703C11.0567 14.5525 10.9134 14.459 10.7557 14.3952C10.598 14.3314 10.429 14.2986 10.2583 14.2986C9.91354 14.2986 9.5829 14.4323 9.33913 14.6703L7.63065 16.3381L6.20781 14.9491L7.91629 13.2813C8.04795 13.1664 8.15424 13.0265 8.22861 12.8701C8.30297 12.7138 8.34385 12.5442 8.34879 12.3719C8.35373 12.1996 8.32262 12.0281 8.25732 11.8679C8.19203 11.7077 8.09396 11.5622 7.96909 11.4403C7.84422 11.3184 7.69515 11.2227 7.53107 11.159C7.36698 11.0952 7.19129 11.0648 7.01476 11.0697C6.83823 11.0745 6.66459 11.1144 6.50441 11.187C6.34423 11.2596 6.20088 11.3633 6.08319 11.4919L4.37477 13.1596L3.12847 11.943L11.0164 4.24285L17.9593 11.0154C18.2026 11.2522 18.5322 11.3851 18.8758 11.3851C19.2195 11.3851 19.5491 11.2522 19.7924 11.0154C19.9133 10.8976 20.0092 10.7578 20.0747 10.6038C20.1401 10.4499 20.1738 10.2848 20.1738 10.1181C20.1738 9.9514 20.1401 9.78635 20.0747 9.63238C20.0092 9.47842 19.9133 9.33857 19.7924 9.22085L11.9408 1.55616C11.8202 1.43814 11.6769 1.3445 11.5192 1.28061C11.3614 1.21672 11.1924 1.18384 11.0216 1.18384C10.8509 1.18384 10.6818 1.21672 10.5241 1.28061C10.3664 1.3445 10.2231 1.43814 10.1025 1.55616L0.381415 11.0458C0.260517 11.1635 0.164588 11.3033 0.0991414 11.4573C0.0336944 11.6113 0 11.7763 0 11.943C0 12.1097 0.0336944 12.2748 0.0991414 12.4287C0.164588 12.5827 0.260517 12.7226 0.381415 12.8403L6.7167 19.0248V19.0298Z" fill="#9332BF"/>
</svg>
