<svg width="102" height="70" viewBox="0 0 102 70" fill="none" xmlns="http://www.w3.org/2000/svg">
<path d="M92.7607 25.5712C92.0672 25.5705 91.3761 25.6507 90.7013 25.8103V13.0746C90.7013 12.6342 90.5262 12.2117 90.2148 11.9002C89.9033 11.5887 89.4809 11.4138 89.0404 11.4138H73.8731C73.5817 11.4157 73.2958 11.494 73.0441 11.6408C72.7923 11.7876 72.5834 11.9979 72.4382 12.2506C72.2931 12.5033 72.2166 12.7897 72.2166 13.0812C72.2166 13.3726 72.293 13.659 72.4382 13.9117C72.9494 14.7911 73.2198 15.7898 73.2221 16.807C73.2243 17.8242 72.9584 18.8241 72.4511 19.7058C71.9439 20.5875 71.2131 21.3198 70.3325 21.8291C69.452 22.3384 68.4528 22.6065 67.4356 22.6065C66.4183 22.6065 65.4191 22.3384 64.5385 21.8291C63.6579 21.3198 62.9273 20.5875 62.42 19.7058C61.9127 18.8241 61.6468 17.8242 61.6491 16.807C61.6514 15.7898 61.9217 14.7911 62.433 13.9117C62.5781 13.659 62.6545 13.3726 62.6545 13.0812C62.6545 12.7897 62.5781 12.5033 62.4329 12.2506C62.2877 11.9979 62.0788 11.7876 61.8271 11.6408C61.5753 11.494 61.2894 11.4157 60.9979 11.4138H33.1283C33.2875 10.7389 33.3678 10.0477 33.3675 9.35426C33.4003 8.13789 33.1891 6.92726 32.7463 5.79386C32.3035 4.66046 31.6382 3.62727 30.7894 2.75531C29.9407 1.88335 28.9258 1.19029 27.8048 0.717049C26.6837 0.243811 25.4793 0 24.2625 0C23.0457 0 21.8412 0.243811 20.7201 0.717049C19.5991 1.19029 18.5843 1.88335 17.7356 2.75531C16.8869 3.62727 16.2214 4.66046 15.7786 5.79386C15.3358 6.92726 15.1246 8.13789 15.1575 9.35426C15.1571 10.0477 15.2374 10.7389 15.3966 11.4138H2.64771C2.20721 11.4138 1.78472 11.5887 1.47325 11.9002C1.16177 12.2117 0.98682 12.6342 0.98682 13.0746V28.2352C0.986243 28.527 1.0626 28.8139 1.20814 29.0668C1.35368 29.3198 1.56322 29.5299 1.81581 29.6761C2.06839 29.8222 2.35507 29.8992 2.6469 29.8994C2.93872 29.8995 3.22543 29.8228 3.47815 29.6769C4.35756 29.1656 5.35622 28.8952 6.37343 28.8929C7.39065 28.8907 8.3905 29.1566 9.2722 29.6638C10.1539 30.1711 10.8862 30.9019 11.3955 31.7824C11.9048 32.663 12.1729 33.6622 12.1729 34.6795C12.1729 35.6967 11.9048 36.6959 11.3955 37.5765C10.8862 38.457 10.1539 39.1878 9.2722 39.6951C8.3905 40.2024 7.39065 40.4683 6.37343 40.466C5.35622 40.4637 4.35756 40.1933 3.47815 39.682C3.22591 39.5364 2.93978 39.4597 2.64852 39.4595C2.35726 39.4594 2.07112 39.5358 1.81873 39.6812C1.56634 39.8266 1.35659 40.0358 1.21057 40.2878C1.06456 40.5398 0.987409 40.8258 0.98682 41.117V56.2843C0.98682 56.7248 1.16177 57.1472 1.47325 57.4587C1.78472 57.7702 2.20721 57.9451 2.64771 57.9451H15.3834C15.2238 58.62 15.1435 59.3112 15.1443 60.0046C15.1114 61.221 15.3226 62.4317 15.7654 63.565C16.2082 64.6984 16.8736 65.7316 17.7223 66.6036C18.571 67.4756 19.5858 68.1686 20.7068 68.6419C21.8279 69.1151 23.0324 69.3589 24.2492 69.3589C25.466 69.3589 26.6705 69.1151 27.7916 68.6419C28.9126 68.1686 29.9274 67.4756 30.7761 66.6036C31.6249 65.7316 32.2902 64.6984 32.733 63.565C33.1758 62.4317 33.387 61.221 33.3541 60.0046C33.3549 59.3112 33.2746 58.62 33.115 57.9451H60.9847C61.2762 57.9432 61.562 57.8649 61.8138 57.7181C62.0655 57.5713 62.2744 57.361 62.4196 57.1083C62.5648 56.8556 62.6412 56.5692 62.6412 56.2777C62.6412 55.9863 62.5648 55.6999 62.4197 55.4472C61.9084 54.5678 61.638 53.5691 61.6358 52.5519C61.6335 51.5347 61.8994 50.5349 62.4067 49.6532C62.914 48.7715 63.6447 48.0391 64.5253 47.5298C65.4058 47.0205 66.405 46.7524 67.4223 46.7524C68.4395 46.7524 69.4387 47.0205 70.3192 47.5298C71.1998 48.0391 71.9306 48.7715 72.4379 49.6532C72.9451 50.5349 73.211 51.5347 73.2088 52.5519C73.2065 53.5691 72.9361 54.5678 72.4249 55.4472C72.2797 55.6999 72.2033 55.9863 72.2033 56.2777C72.2033 56.5692 72.2798 56.8556 72.4249 57.1083C72.5701 57.361 72.779 57.5713 73.0307 57.7181C73.2825 57.8649 73.5684 57.9432 73.8598 57.9451H89.0138C89.4543 57.9451 89.8768 57.7702 90.1882 57.4587C90.4997 57.1472 90.6747 56.7248 90.6747 56.2843V43.5486C91.3501 43.7048 92.041 43.785 92.7342 43.7878C93.9303 43.7878 95.1147 43.5522 96.2198 43.0944C97.3249 42.6367 98.3289 41.9658 99.1747 41.12C100.02 40.2742 100.691 39.2701 101.149 38.1651C101.607 37.06 101.842 35.8756 101.842 34.6795C101.842 33.4833 101.607 32.2989 101.149 31.1939C100.691 30.0888 100.02 29.0847 99.1747 28.2389C98.3289 27.3931 97.3249 26.7222 96.2198 26.2645C95.1147 25.8067 93.9303 25.5712 92.7342 25.5712H92.7607ZM30.7034 54.6234C30.4116 54.6228 30.1247 54.6991 29.8718 54.8447C29.6189 54.9902 29.4088 55.1998 29.2626 55.4524C29.1164 55.705 29.0394 55.9916 29.0392 56.2834C29.0391 56.5753 29.1159 56.862 29.2618 57.1147C29.7702 57.9933 30.0382 58.9902 30.039 60.0053C30.0398 61.0204 29.7733 62.0178 29.2662 62.8971C28.7591 63.7765 28.0294 64.5068 27.1504 65.0145C26.2714 65.5223 25.2743 65.7896 24.2592 65.7896C23.2441 65.7896 22.2469 65.5223 21.368 65.0145C20.489 64.5068 19.7593 63.7765 19.2522 62.8971C18.7451 62.0178 18.4785 61.0204 18.4792 60.0053C18.48 58.9902 18.7481 57.9933 19.2566 57.1147C19.4044 56.8628 19.4828 56.5763 19.484 56.2842C19.4851 55.9921 19.409 55.705 19.2632 55.4519C19.1174 55.1989 18.9073 54.9889 18.6541 54.8433C18.4009 54.6978 18.1136 54.6219 17.8215 54.6234H4.3219V43.5486C4.99734 43.7048 5.68811 43.785 6.38137 43.7878C7.57749 43.7878 8.7619 43.5522 9.86697 43.0944C10.972 42.6367 11.9761 41.9658 12.8219 41.12C13.6677 40.2742 14.3386 39.2701 14.7963 38.1651C15.2541 37.06 15.4896 35.8756 15.4896 34.6795C15.4896 33.4833 15.2541 32.2989 14.7963 31.1939C14.3386 30.0888 13.6677 29.0847 12.8219 28.2389C11.9761 27.3931 10.972 26.7222 9.86697 26.2645C8.7619 25.8067 7.57749 25.5712 6.38137 25.5712C5.68793 25.5708 4.99681 25.6511 4.3219 25.8103V14.7355H17.8215C18.1136 14.737 18.4009 14.6611 18.6541 14.5156C18.9073 14.37 19.1174 14.1601 19.2632 13.907C19.409 13.6539 19.4851 13.3668 19.484 13.0747C19.4828 12.7826 19.4044 12.4961 19.2566 12.2442C18.7453 11.3648 18.475 10.3662 18.4727 9.34894C18.4704 8.33173 18.7362 7.33188 19.2435 6.45019C19.7508 5.56849 20.4816 4.8361 21.3621 4.32683C22.2427 3.81756 23.242 3.54941 24.2592 3.54941C25.2764 3.54941 26.2756 3.81756 27.1562 4.32683C28.0367 4.8361 28.7675 5.56849 29.2748 6.45019C29.782 7.33188 30.048 8.33173 30.0457 9.34894C30.0434 10.3662 29.773 11.3648 29.2618 12.2442C29.1159 12.4969 29.0391 12.7836 29.0392 13.0755C29.0394 13.3673 29.1164 13.6539 29.2626 13.9065C29.4088 14.1591 29.6189 14.3687 29.8718 14.5143C30.1247 14.6598 30.4116 14.7361 30.7034 14.7355H44.1699V25.8037C43.5031 25.6499 42.8211 25.5719 42.1369 25.5712C39.7212 25.5712 37.4046 26.5308 35.6964 28.2389C33.9883 29.9471 33.0286 32.2638 33.0286 34.6795C33.0286 37.0951 33.9883 39.4119 35.6964 41.12C37.4046 42.8281 39.7212 43.7878 42.1369 43.7878C42.8214 43.7848 43.5034 43.7046 44.1699 43.5486V54.6234H30.7034ZM92.7607 40.466C91.7452 40.4634 90.7484 40.193 89.8708 39.682C89.6186 39.5364 89.3324 39.4597 89.0412 39.4595C88.7499 39.4594 88.4638 39.5358 88.2114 39.6812C87.959 39.8266 87.7493 40.0358 87.6032 40.2878C87.4572 40.5398 87.3801 40.8258 87.3795 41.117V54.6234H76.3047C76.4607 53.9456 76.5409 53.2527 76.5438 52.5572C76.5438 50.1416 75.5843 47.8248 73.8761 46.1167C72.168 44.4086 69.8512 43.4489 67.4356 43.4489C65.0199 43.4489 62.7032 44.4086 60.995 46.1167C59.2869 47.8248 58.3273 50.1416 58.3273 52.5572C58.3269 53.2529 58.4072 53.9462 58.5665 54.6234H47.5249V41.117C47.5243 40.8261 47.4472 40.5404 47.3015 40.2885C47.1557 40.0367 46.9464 39.8275 46.6944 39.682C46.4339 39.5254 46.1347 39.4449 45.8308 39.4495C45.5346 39.4425 45.2423 39.5184 44.987 39.6688C44.1136 40.1775 43.1211 40.4457 42.1104 40.4461C41.2197 40.4526 40.3396 40.2535 39.5385 39.8642C38.7374 39.475 38.037 38.906 37.4918 38.2017C36.9467 37.4974 36.5714 36.6767 36.3953 35.8037C36.2192 34.9306 36.2471 34.0286 36.4767 33.1681C36.7062 32.3075 37.1314 31.5116 37.719 30.8422C38.3066 30.1729 39.0407 29.6482 39.8643 29.3091C40.6879 28.9699 41.5786 28.8255 42.4671 28.887C43.3557 28.9485 44.218 29.2142 44.987 29.6636C45.2423 29.8139 45.5346 29.8899 45.8308 29.8828C46.1289 29.889 46.4231 29.8132 46.6811 29.6636C46.9341 29.5175 47.1441 29.3073 47.2899 29.0542C47.4357 28.8011 47.5122 28.514 47.5116 28.2219V14.7355H58.5532C58.3939 15.4127 58.3136 16.106 58.314 16.8017C58.314 19.2174 59.2736 21.5341 60.9817 23.2422C62.6898 24.9504 65.0066 25.91 67.4223 25.91C69.8379 25.91 72.1547 24.9504 73.8628 23.2422C75.5709 21.5341 76.5305 19.2174 76.5305 16.8017C76.5276 16.1062 76.4474 15.4133 76.2914 14.7355H87.3662V28.2352C87.3656 28.527 87.4419 28.8139 87.5874 29.0668C87.733 29.3198 87.9426 29.5299 88.1952 29.6761C88.4478 29.8222 88.7344 29.8992 89.0263 29.8994C89.3181 29.8995 89.6048 29.8228 89.8575 29.6769C90.6254 29.2349 91.4845 28.9753 92.3686 28.9182C93.2528 28.8611 94.1382 29.0081 94.9565 29.3477C95.7748 29.6873 96.5041 30.2105 97.088 30.8768C97.672 31.5432 98.0949 32.3348 98.3241 33.1906C98.5534 34.0464 98.5828 34.9435 98.4101 35.8125C98.2374 36.6815 97.8672 37.4991 97.3283 38.2023C96.7893 38.9055 96.0959 39.4753 95.3016 39.8678C94.5073 40.2603 93.6335 40.465 92.7475 40.466H92.7607Z" fill="#D35230"/>
</svg>
