<?xml version="1.0" encoding="utf-8"?>
<!-- Generator: Adobe Illustrator 25.0.0, SVG Export Plug-In . SVG Version: 6.00 Build 0)  -->
<svg version="1.1" id="Layer_1" xmlns="http://www.w3.org/2000/svg" xmlns:xlink="http://www.w3.org/1999/xlink" x="0px" y="0px"
	 viewBox="0 0 53.4 38" style="enable-background:new 0 0 53.4 38;" xml:space="preserve">
<style type="text/css">
	.st0{fill:none;stroke:#58595B;stroke-linejoin:round;stroke-miterlimit:10;}
</style>
<g>
	<circle class="st0" cx="7.1" cy="5.2" r="4.7"/>
	<path class="st0" d="M0.5,16.6c0-3.7,3-6.6,6.6-6.6s6.6,3,6.6,6.6"/>
</g>
<g>
	<circle class="st0" cx="26.7" cy="5.2" r="4.7"/>
	<path class="st0" d="M20.1,16.6c0-3.7,3-6.6,6.6-6.6s6.6,3,6.6,6.6"/>
</g>
<g>
	<circle class="st0" cx="46.2" cy="5.2" r="4.7"/>
	<path class="st0" d="M39.6,16.6c0-3.7,3-6.6,6.6-6.6c3.7,0,6.6,3,6.6,6.6"/>
</g>
<g>
	<circle class="st0" cx="7.1" cy="26.7" r="4.7"/>
	<path class="st0" d="M0.5,38c0-3.7,3-6.6,6.6-6.6s6.6,3,6.6,6.6"/>
</g>
<g>
	<circle class="st0" cx="26.7" cy="26.7" r="4.7"/>
	<path class="st0" d="M20.1,38c0-3.7,3-6.6,6.6-6.6s6.6,3,6.6,6.6"/>
</g>
<g>
	<circle class="st0" cx="46.2" cy="26.7" r="4.7"/>
	<path class="st0" d="M39.6,38c0-3.7,3-6.6,6.6-6.6c3.7,0,6.6,3,6.6,6.6"/>
</g>
</svg>
