<svg width="63" height="47" viewBox="0 0 63 47" fill="none" xmlns="http://www.w3.org/2000/svg">
<path d="M30.0934 4.6487C27.6546 5.14287 25.413 6.32339 23.6393 8.04766C21.8656 9.77192 20.6356 11.9662 20.0982 14.3653C19.9966 14.8235 20.0832 15.3027 20.339 15.698C20.5948 16.0932 20.9989 16.3723 21.4628 16.474C21.5905 16.502 21.721 16.5159 21.8518 16.5154C22.2606 16.5155 22.6572 16.3781 22.9761 16.1257C23.2949 15.8733 23.517 15.5211 23.6056 15.1273C23.9917 13.4002 24.8748 11.8199 26.1488 10.5762C27.4229 9.33246 29.0337 8.47818 30.7878 8.11596C31.029 8.08044 31.2603 7.99681 31.4677 7.87014C31.6751 7.74347 31.8542 7.57643 31.994 7.37922C32.1338 7.18201 32.2315 6.95875 32.281 6.72308C32.3305 6.4874 32.3307 6.24423 32.2819 6.00842C32.233 5.7726 32.1361 5.54909 31.9968 5.3515C31.8575 5.1539 31.679 4.98637 31.4719 4.85914C31.2649 4.7319 31.0339 4.64762 30.7928 4.61144C30.5516 4.57526 30.3056 4.58794 30.0696 4.6487H30.0934Z" fill="#107C41"/>
<path d="M61.7912 40.089L50.6527 29.1025C50.1089 28.5602 49.4201 28.1818 48.6666 28.0114C47.9131 27.8409 47.126 27.8854 46.3971 28.1397L46.1219 27.862C48.8124 24.5773 50.1784 20.4274 49.9574 16.2092C49.7365 11.9911 47.9442 8.00229 44.9248 5.00883C42.557 2.67602 39.555 1.07045 36.2818 0.386376C33.0087 -0.297695 29.6048 -0.0309314 26.4821 1.15439C23.3594 2.33971 20.6516 4.39278 18.6866 7.06516C16.7216 9.73754 15.5835 12.9147 15.41 16.2121C15.2364 19.5096 16.0349 22.786 17.7089 25.6448C19.3829 28.5037 21.8605 30.8226 24.842 32.3208C27.8235 33.8189 31.1811 34.4322 34.5085 34.0864C37.8358 33.7407 40.9902 32.4506 43.5901 30.3724L43.8654 30.6441C43.7171 31.07 43.6404 31.5169 43.6381 31.9672C43.635 32.5001 43.7391 33.0283 43.9446 33.5211C44.1501 34.0139 44.4528 34.4615 44.8351 34.8379L55.9556 45.8127C56.7301 46.5588 57.7714 46.9735 58.8537 46.9668C59.9359 46.9601 60.9719 46.5325 61.7368 45.7768C62.5017 45.0212 62.9339 43.9983 62.9395 42.9302C62.9452 41.8621 62.524 40.8349 61.7672 40.0713L61.7912 40.089ZM22.9892 26.6925C21.0688 24.7976 19.761 22.3832 19.2311 19.7547C18.7011 17.1262 18.9729 14.4016 20.0121 11.9256C21.0512 9.4495 22.811 7.33317 25.069 5.84419C27.3269 4.35521 29.9815 3.56046 32.6971 3.56046C35.4127 3.56046 38.0674 4.35521 40.3253 5.84419C42.5832 7.33317 44.343 9.4495 45.3822 11.9256C46.4213 14.4016 46.6931 17.1262 46.1632 19.7547C45.6333 22.3832 44.3254 24.7976 42.4051 26.6925C41.1367 27.9629 39.6248 28.9715 37.9574 29.6593C36.29 30.3472 34.5005 30.7006 32.6933 30.6989C30.8861 30.6973 29.0974 30.3406 27.4313 29.6497C25.7652 28.9588 24.2552 27.9475 22.9892 26.6748V26.6925ZM59.2534 43.32C59.2055 43.3684 59.1482 43.4069 59.085 43.4331C59.0218 43.4594 58.9538 43.4729 58.8852 43.4729C58.8166 43.4729 58.7488 43.4594 58.6856 43.4331C58.6224 43.4069 58.5651 43.3684 58.5171 43.32L47.3968 32.3512C47.3257 32.2782 47.2776 32.1864 47.2587 32.0869C47.2397 31.9874 47.2505 31.8846 47.29 31.7911C47.3294 31.6976 47.3956 31.6176 47.4805 31.5607C47.5654 31.5039 47.6652 31.4727 47.7678 31.4711C47.9052 31.4727 48.0366 31.5279 48.1329 31.6247L59.2534 42.5935C59.3019 42.6416 59.34 42.6988 59.3657 42.7617C59.3914 42.8246 59.4042 42.8919 59.4031 42.9597C59.4003 43.0888 59.3466 43.2117 59.2534 43.3023V43.32Z" fill="#107C41"/>
<path d="M18.0094 29.2442C17.5332 29.2442 17.0765 29.4309 16.7398 29.7632C16.403 30.0955 16.2139 30.5462 16.2139 31.0162V31.5183H7.00273V22.4337H13.1076C13.5838 22.4337 14.0405 22.247 14.3772 21.9147C14.714 21.5824 14.9031 21.1316 14.9031 20.6617C14.9031 20.1917 14.714 19.741 14.3772 19.4087C14.0405 19.0764 13.5838 18.8896 13.1076 18.8896H5.20718C4.73096 18.8896 4.27425 19.0764 3.93752 19.4087C3.60078 19.741 3.41162 20.1917 3.41162 20.6617V33.2903C3.41162 33.7603 3.60078 34.211 3.93752 34.5433C4.27425 34.8756 4.73096 35.0623 5.20718 35.0623H18.0094C18.4856 35.0623 18.9423 34.8756 19.2791 34.5433C19.6158 34.211 19.805 33.7603 19.805 33.2903V31.0162C19.805 30.5462 19.6158 30.0955 19.2791 29.7632C18.9423 29.4309 18.4856 29.2442 18.0094 29.2442Z" fill="#107C41"/>
<path d="M14.7003 14.8621C14.7003 14.3921 14.5111 13.9414 14.1744 13.6091C13.8377 13.2767 13.3809 13.0901 12.9047 13.0901H4.96238L9.75053 5.22227L12.5158 9.78228C12.6372 9.98202 12.7972 10.1562 12.9868 10.2949C13.1765 10.4335 13.392 10.534 13.621 10.5905C13.85 10.647 14.0879 10.6584 14.3214 10.6241C14.5548 10.5898 14.7792 10.5105 14.9816 10.3907C15.184 10.2708 15.3605 10.1128 15.501 9.92566C15.6415 9.7385 15.7433 9.52587 15.8006 9.29989C15.8578 9.07391 15.8694 8.83901 15.8346 8.60861C15.7999 8.37821 15.7195 8.15684 15.5981 7.9571L11.2888 0.869C11.1291 0.60727 10.9035 0.390733 10.634 0.240417C10.3645 0.0901 10.0601 0.0111084 9.75053 0.0111084C9.44095 0.0111084 9.13673 0.0901 8.86722 0.240417C8.5977 0.390733 8.37214 0.60727 8.21244 0.869L0.270099 13.9584C0.106953 14.2275 0.0190963 14.5346 0.0155535 14.8482C0.0120106 15.1619 0.0929089 15.4708 0.249934 15.7435C0.406959 16.0162 0.634401 16.2429 0.909239 16.4004C1.18408 16.5579 1.49636 16.6406 1.81418 16.64H12.9227C13.3968 16.6353 13.8498 16.4458 14.1829 16.1127C14.5159 15.7796 14.7019 15.33 14.7003 14.8621Z" fill="#107C41"/>
</svg>
