<svg width="62" height="47" viewBox="0 0 62 47" fill="none" xmlns="http://www.w3.org/2000/svg">
<g clip-path="url(#clip0)">
<path d="M60.2491 0H1.75077C1.28642 0 0.841139 0.184937 0.512796 0.51412C0.184454 0.843304 -5.34058e-05 1.28977 -5.34058e-05 1.7553V45.2447C-5.34058e-05 45.7102 0.184454 46.1567 0.512796 46.4859C0.841139 46.8151 1.28642 47 1.75077 47H60.2491C60.7135 47 61.1589 46.8151 61.4872 46.4859C61.8155 46.1567 62 45.7102 62 45.2447V1.7553C62 1.28977 61.8155 0.843304 61.4872 0.51412C61.1589 0.184937 60.7135 0 60.2491 0ZM58.4983 3.51061V29.791L45.3042 16.556C44.9739 16.2293 44.5286 16.0461 44.0646 16.0461C43.6006 16.0461 43.1553 16.2293 42.825 16.556L35.6466 23.7598L31.3257 19.4277C30.9975 19.0997 30.553 18.9155 30.0896 18.9155C29.6262 18.9155 29.1817 19.0997 28.8535 19.4277L15.7783 32.5223L3.50158 20.2141V3.51061H58.4983ZM3.50158 43.4894V25.1921L14.5388 36.2576C14.7009 36.4219 14.894 36.5523 15.1067 36.6413C15.3195 36.7303 15.5478 36.7762 15.7783 36.7762C16.0089 36.7762 16.2372 36.7303 16.45 36.6413C16.6627 36.5523 16.8558 36.4219 17.0179 36.2576L30.0931 23.156L34.407 27.481C34.5697 27.6445 34.7629 27.7742 34.9756 27.8627C35.1883 27.9512 35.4163 27.9967 35.6466 27.9967C35.8769 27.9967 36.105 27.9512 36.3177 27.8627C36.5304 27.7742 36.7236 27.6445 36.8862 27.481L44.0646 20.2773L58.4983 34.755V43.4894H3.50158Z" fill="#D35230"/>
<path d="M17.9002 22.51C19.1773 22.51 20.4257 22.1303 21.4875 21.419C22.5494 20.7077 23.377 19.6966 23.8657 18.5137C24.3545 17.3309 24.4823 16.0292 24.2332 14.7735C23.984 13.5177 23.3691 12.3643 22.466 11.4589C21.563 10.5536 20.4125 9.93704 19.1599 9.68726C17.9074 9.43748 16.6091 9.56566 15.4292 10.0556C14.2494 10.5456 13.2409 11.3753 12.5314 12.4399C11.8219 13.5045 11.4432 14.7561 11.4432 16.0364C11.4451 17.7527 12.1259 19.3982 13.3365 20.6119C14.547 21.8255 16.1883 22.5081 17.9002 22.51ZM17.9002 13.0735C18.4847 13.0735 19.0561 13.2472 19.5421 13.5728C20.0281 13.8984 20.407 14.3611 20.6307 14.9026C20.8544 15.444 20.9129 16.0397 20.7988 16.6145C20.6848 17.1892 20.4033 17.7172 19.99 18.1315C19.5767 18.5459 19.0501 18.8281 18.4768 18.9424C17.9035 19.0568 17.3093 18.9981 16.7693 18.7738C16.2293 18.5496 15.7677 18.1698 15.4429 17.6825C15.1182 17.1953 14.9449 16.6224 14.9449 16.0364C14.9449 15.2506 15.2562 14.497 15.8104 13.9413C16.3647 13.3856 17.1164 13.0735 17.9002 13.0735Z" fill="#D35230"/>
</g>
<defs>
<clipPath id="clip0">
<rect width="62" height="47" fill="white"/>
</clipPath>
</defs>
</svg>
